<svg width="32" height="33" viewBox="0 0 32 33" fill="none" xmlns="http://www.w3.org/2000/svg">
  <path
    d="M28.1947 10.9105C28.0091 11.0545 24.7318 12.9012 24.7318 17.0074C24.7318 21.7569 28.902 23.4372 29.0269 23.4788C29.0077 23.5812 28.3644 25.7799 26.8281 28.0203C25.4583 29.9918 24.0277 31.9601 21.8514 31.9601C19.675 31.9601 19.1149 30.6959 16.6026 30.6959C14.1542 30.6959 13.2837 32.0017 11.2929 32.0017C9.30225 32.0017 7.91323 30.1774 6.31619 27.9371C4.46631 25.3063 2.97168 21.2192 2.97168 17.3402C2.97168 11.1185 7.0171 7.81879 10.9985 7.81879C13.114 7.81879 14.8775 9.20781 16.2057 9.20781C17.4699 9.20781 19.4414 7.73558 21.8482 7.73558C22.7603 7.73558 26.0376 7.81879 28.1947 10.9105ZM20.7056 5.10158C21.7009 3.9206 22.405 2.28195 22.405 0.643298C22.405 0.416064 22.3858 0.185628 22.3442 0C20.7248 0.0608093 18.7981 1.07856 17.6363 2.42597C16.7242 3.46293 15.8728 5.10158 15.8728 6.76263C15.8728 7.01227 15.9145 7.26191 15.9337 7.34192C16.0361 7.36112 16.2025 7.38353 16.3689 7.38353C17.8219 7.38353 19.6494 6.41058 20.7056 5.10158Z"
    fill="#A5AAB4" />
</svg>