<svg width="120" height="40" viewBox="0 0 120 40" fill="none" xmlns="http://www.w3.org/2000/svg">
<g clip-path="url(#clip0_1_1433)">
<path d="M110.444 -0.000114141H9.56145C9.19372 -0.000114141 8.8304 -0.000114141 8.46364 0.00188586C8.15663 0.00388586 7.85207 0.00969586 7.54211 0.0145859C6.86874 0.0224877 6.19695 0.0815621 5.53259 0.191296C4.86915 0.303418 4.2265 0.514802 3.62637 0.818296C3.02697 1.12436 2.47929 1.52205 2.00318 1.99696C1.52457 2.47052 1.12561 3.0179 0.82165 3.61805C0.516847 4.21699 0.305496 4.85882 0.194896 5.52137C0.083244 6.18307 0.0231632 6.85241 0.0151925 7.52337C0.00588648 7.82997 0.00490373 8.13759 0 8.44423V31.5585C0.00490373 31.869 0.00588648 32.1698 0.0151925 32.4804C0.0231657 33.1513 0.0832464 33.8206 0.194896 34.4823C0.30519 35.1452 0.516554 35.7874 0.82165 36.3866C1.12548 36.9848 1.52449 37.53 2.00318 38.0009C2.47748 38.4779 3.02552 38.8759 3.62637 39.1796C4.2265 39.4839 4.86908 39.6965 5.53259 39.8104C6.19707 39.9192 6.86879 39.9783 7.54211 39.9872C7.85207 39.994 8.15663 39.9979 8.46364 39.9979C8.83039 39.9999 9.19374 39.9999 9.56145 39.9999H110.444C110.804 39.9999 111.171 39.9999 111.531 39.9979C111.837 39.9979 112.15 39.994 112.455 39.9872C113.128 39.9788 113.798 39.9197 114.461 39.8104C115.127 39.6957 115.772 39.4831 116.375 39.1796C116.975 38.8757 117.522 38.4777 117.996 38.0009C118.474 37.5281 118.874 36.9833 119.181 36.3866C119.484 35.787 119.693 35.1448 119.802 34.4823C119.914 33.8205 119.976 33.1514 119.988 32.4804C119.992 32.1698 119.992 31.869 119.992 31.5585C120 31.1952 120 30.8339 120 30.4647V9.53602C120 9.16981 120 8.80653 119.992 8.44423C119.992 8.13759 119.992 7.82997 119.988 7.52333C119.976 6.85231 119.914 6.18312 119.802 5.52133C119.693 4.85917 119.484 4.21739 119.181 3.61801C118.562 2.41508 117.581 1.43591 116.375 0.818206C115.772 0.515453 115.127 0.304126 114.461 0.191206C113.798 0.0809886 113.128 0.0218936 112.455 0.0144459C112.15 0.00956586 111.837 0.00370586 111.531 0.00175586C111.171 -0.000244141 110.804 -0.000244141 110.444 -0.000244141V-0.000114141Z" fill="#A6A6A6"/>
<path d="M8.46856 39.125C8.16303 39.125 7.86487 39.1211 7.56174 39.1143C6.93376 39.1061 6.30725 39.0516 5.68735 38.9512C5.10932 38.8519 4.54937 38.6673 4.02596 38.4033C3.50735 38.1415 3.03433 37.7983 2.62504 37.3867C2.20981 36.98 1.86412 36.5082 1.60166 35.9902C1.33631 35.4688 1.15267 34.9099 1.05714 34.333C0.953972 33.7131 0.898156 33.0863 0.890169 32.458C0.883812 32.2471 0.875488 31.5449 0.875488 31.5449V8.44434C0.875488 8.44434 0.884353 7.75293 0.89022 7.5498C0.897867 6.92248 0.953358 6.29665 1.05621 5.67773C1.15192 5.09925 1.3357 4.53875 1.6012 4.01563C1.8627 3.49794 2.20647 3.02586 2.61919 2.61768C3.03145 2.20562 3.50597 1.8606 4.02547 1.59521C4.54767 1.33209 5.10657 1.14873 5.68343 1.05127C6.30537 0.949836 6.93405 0.894996 7.5642 0.88721L8.46906 0.875H111.526L112.442 0.8877C113.066 0.895099 113.689 0.94945 114.305 1.05029C114.888 1.14898 115.453 1.33362 115.981 1.59814C117.022 2.13299 117.869 2.97916 118.403 4.01807C118.664 4.53758 118.845 5.09351 118.939 5.66699C119.044 6.29099 119.102 6.92174 119.114 7.5542C119.117 7.8374 119.117 8.1416 119.117 8.44434C119.125 8.81934 119.125 9.17627 119.125 9.53613V30.4648C119.125 30.8281 119.125 31.1826 119.117 31.54C119.117 31.8652 119.117 32.1631 119.113 32.4697C119.101 33.0909 119.044 33.7104 118.941 34.3232C118.848 34.9043 118.665 35.4675 118.4 35.9932C118.136 36.5056 117.792 36.9733 117.381 37.3789C116.972 37.7927 116.498 38.1379 115.978 38.4014C115.451 38.6674 114.887 38.8527 114.305 38.9512C113.686 39.0522 113.059 39.1067 112.431 39.1143C112.137 39.1211 111.83 39.125 111.531 39.125L110.444 39.127L8.46856 39.125Z" fill="black"/>
<path d="M24.8384 20.3006C24.8492 19.4659 25.0715 18.6475 25.4847 17.9216C25.8978 17.1956 26.4885 16.5857 27.2015 16.1485C26.7485 15.5034 26.1509 14.9724 25.4561 14.5979C24.7614 14.2233 23.9886 14.0155 23.1992 13.9908C21.5152 13.8146 19.8827 14.9957 19.0246 14.9957C18.1499 14.9957 16.8287 14.0083 15.406 14.0375C14.4857 14.0672 13.5889 14.334 12.8028 14.8121C12.0167 15.2901 11.3682 15.9631 10.9205 16.7654C8.98105 20.1138 10.4277 25.0349 12.2855 27.7415C13.215 29.0668 14.3013 30.5473 15.7228 30.4948C17.1137 30.4372 17.6332 29.6103 19.3122 29.6103C20.9756 29.6103 21.463 30.4948 22.9133 30.4614C24.4058 30.4372 25.3462 29.1302 26.2431 27.7923C26.911 26.8479 27.4249 25.8042 27.7658 24.6997C26.8987 24.334 26.1587 23.7218 25.6381 22.9395C25.1175 22.1572 24.8394 21.2394 24.8384 20.3006Z" fill="white"/>
<path d="M22.0992 12.2108C22.913 11.2366 23.3139 9.98445 23.2168 8.72021C21.9735 8.85044 20.825 9.44299 20.0002 10.3798C19.597 10.8375 19.2881 11.3699 19.0913 11.9467C18.8945 12.5235 18.8136 13.1333 18.8533 13.7412C19.4752 13.7476 20.0904 13.6132 20.6527 13.3481C21.2149 13.083 21.7095 12.6942 22.0992 12.2108Z" fill="white"/>
<path d="M42.421 27.1397H37.6743L36.5344 30.4961H34.5239L39.0199 18.0781H41.1088L45.6047 30.4961H43.56L42.421 27.1397ZM38.166 25.5908H41.9285L40.0737 20.1436H40.0218L38.166 25.5908Z" fill="white"/>
<path d="M55.3145 25.9697C55.3145 28.7832 53.8044 30.5908 51.5256 30.5908C50.9483 30.6209 50.3742 30.4883 49.869 30.2082C49.3638 29.928 48.9479 29.5117 48.6689 29.0068H48.6258V33.4912H46.7622V21.4423H48.5661V22.9482H48.6004C48.8922 22.4457 49.3151 22.0316 49.8241 21.7497C50.3332 21.4679 50.9093 21.3289 51.4913 21.3476C53.7956 21.3476 55.3145 23.164 55.3145 25.9697ZM53.399 25.9697C53.399 24.1367 52.449 22.9316 50.9997 22.9316C49.5758 22.9316 48.618 24.1621 48.618 25.9697C48.618 27.7939 49.5758 29.0156 50.9997 29.0156C52.4491 29.0156 53.399 27.8193 53.399 25.9697Z" fill="white"/>
<path d="M65.3074 25.9697C65.3074 28.7832 63.7973 30.5908 61.5185 30.5908C60.9412 30.6209 60.3671 30.4883 59.8619 30.2081C59.3567 29.928 58.9408 29.5117 58.6619 29.0068H58.6187V33.4912H56.7551V21.4423H58.559V22.9482H58.5933C58.885 22.4457 59.308 22.0315 59.817 21.7497C60.3261 21.4679 60.9022 21.3289 61.4842 21.3476C63.7885 21.3476 65.3074 23.164 65.3074 25.9697ZM63.3919 25.9697C63.3919 24.1367 62.442 22.9316 60.9926 22.9316C59.5687 22.9316 58.6109 24.1621 58.6109 25.9697C58.6109 27.7939 59.5687 29.0156 60.9926 29.0156C62.442 29.0156 63.3919 27.8193 63.3919 25.9697H63.3919Z" fill="white"/>
<path d="M71.9119 27.0362C72.05 28.2676 73.2496 29.0762 74.889 29.0762C76.4598 29.0762 77.5899 28.2676 77.5899 27.1572C77.5899 26.1934 76.9083 25.6162 75.2944 25.2207L73.6805 24.833C71.3938 24.2822 70.3322 23.2158 70.3322 21.4854C70.3322 19.3428 72.2047 17.8711 74.8635 17.8711C77.4949 17.8711 79.2988 19.3428 79.3595 21.4854H77.4782C77.3656 20.2461 76.3383 19.4981 74.837 19.4981C73.3358 19.4981 72.3085 20.2549 72.3085 21.3565C72.3085 22.2344 72.9646 22.751 74.5697 23.1465L75.9417 23.4824C78.4967 24.0849 79.5583 25.1084 79.5583 26.9248C79.5583 29.248 77.7025 30.7031 74.7508 30.7031C71.9892 30.7031 70.1246 29.2822 70.0042 27.0361L71.9119 27.0362Z" fill="white"/>
<path d="M83.5802 19.2998V21.4424H85.3067V22.9141H83.5802V27.9053C83.5802 28.6807 83.9259 29.042 84.6849 29.042C84.8898 29.0384 85.0945 29.0241 85.2979 28.999V30.4619C84.9567 30.5255 84.6099 30.5543 84.2628 30.5478C82.4246 30.5478 81.7078 29.8593 81.7078 28.1035V22.9141H80.3877V21.4424H81.7078V19.2998H83.5802Z" fill="white"/>
<path d="M86.3066 25.9697C86.3066 23.1211 87.9891 21.3311 90.6126 21.3311C93.245 21.3311 94.9196 23.1211 94.9196 25.9697C94.9196 28.8262 93.2538 30.6084 90.6126 30.6084C87.9724 30.6084 86.3066 28.8262 86.3066 25.9697ZM93.0207 25.9697C93.0207 24.0156 92.1227 22.8623 90.6126 22.8623C89.1025 22.8623 88.2055 24.0244 88.2055 25.9697C88.2055 27.9316 89.1025 29.0762 90.6126 29.0762C92.1227 29.0762 93.0207 27.9316 93.0207 25.9697H93.0207Z" fill="white"/>
<path d="M96.4561 21.4425H98.2335V22.9835H98.2766C98.3969 22.5022 98.6796 22.0769 99.0773 21.779C99.475 21.4811 99.9634 21.3288 100.46 21.3478C100.675 21.347 100.889 21.3703 101.099 21.4171V23.1554C100.828 23.0728 100.545 23.0348 100.262 23.0431C99.9909 23.0321 99.721 23.0797 99.4704 23.1826C99.2199 23.2855 98.9946 23.4412 98.8102 23.6391C98.6257 23.837 98.4863 24.0724 98.4016 24.3291C98.317 24.5857 98.289 24.8576 98.3197 25.1261V30.4962H96.4561L96.4561 21.4425Z" fill="white"/>
<path d="M109.691 27.8369C109.441 29.4805 107.836 30.6084 105.782 30.6084C103.141 30.6084 101.501 28.8437 101.501 26.0127C101.501 23.1729 103.15 21.3311 105.704 21.3311C108.216 21.3311 109.795 23.0518 109.795 25.7969V26.4336H103.383V26.5459C103.353 26.8791 103.395 27.2148 103.505 27.5306C103.616 27.8464 103.793 28.1352 104.024 28.3778C104.255 28.6203 104.535 28.8111 104.845 28.9374C105.156 29.0637 105.49 29.1226 105.825 29.1103C106.265 29.1515 106.707 29.0498 107.085 28.8203C107.463 28.5909 107.756 28.246 107.922 27.8369L109.691 27.8369ZM103.392 25.1348H107.931C107.947 24.8352 107.902 24.5354 107.797 24.2541C107.692 23.9729 107.53 23.7164 107.321 23.5006C107.111 23.2849 106.86 23.1145 106.582 23.0003C106.303 22.8861 106.004 22.8305 105.704 22.8369C105.4 22.8351 105.099 22.8933 104.819 23.008C104.538 23.1227 104.282 23.2918 104.067 23.5054C103.853 23.7191 103.682 23.973 103.566 24.2527C103.45 24.5323 103.391 24.8321 103.392 25.1348V25.1348Z" fill="white"/>
<path d="M37.9323 8.73065C38.323 8.70269 38.7151 8.76155 39.0802 8.90298C39.4454 9.04441 39.7745 9.26489 40.0438 9.54852C40.3131 9.83214 40.516 10.1718 40.6377 10.5431C40.7595 10.9144 40.7971 11.308 40.7478 11.6955C40.7478 13.6017 39.7147 14.6975 37.9323 14.6975H35.771V8.73065H37.9323ZM36.7003 13.8536H37.8285C38.1077 13.8703 38.3871 13.8246 38.6464 13.72C38.9056 13.6154 39.1382 13.4545 39.3273 13.2489C39.5163 13.0433 39.6569 12.7983 39.739 12.5317C39.8211 12.2651 39.8426 11.9836 39.8018 11.7076C39.8396 11.4328 39.816 11.153 39.7326 10.8884C39.6493 10.6237 39.5083 10.3807 39.3197 10.1768C39.1311 9.97285 38.8996 9.81304 38.6418 9.70881C38.384 9.60457 38.1063 9.55849 37.8285 9.57386H36.7003V13.8536Z" fill="white"/>
<path d="M41.7977 12.444C41.7693 12.1481 41.8032 11.8496 41.8973 11.5675C41.9914 11.2854 42.1436 11.0261 42.3441 10.8061C42.5446 10.5861 42.789 10.4103 43.0616 10.2901C43.3343 10.1698 43.6291 10.1077 43.9272 10.1077C44.2253 10.1077 44.5201 10.1698 44.7927 10.2901C45.0653 10.4103 45.3097 10.5861 45.5102 10.8061C45.7107 11.0261 45.8629 11.2854 45.957 11.5675C46.0511 11.8496 46.0851 12.1481 46.0567 12.444C46.0856 12.7403 46.0521 13.0392 45.9582 13.3218C45.8643 13.6043 45.7122 13.8641 45.5117 14.0845C45.3111 14.3049 45.0666 14.4811 44.7937 14.6016C44.5208 14.7221 44.2256 14.7844 43.9272 14.7844C43.6287 14.7844 43.3336 14.7221 43.0607 14.6016C42.7878 14.4811 42.5432 14.3049 42.3426 14.0845C42.1421 13.8641 41.99 13.6043 41.8961 13.3218C41.8023 13.0392 41.7687 12.7403 41.7977 12.444ZM45.14 12.444C45.14 11.468 44.7003 10.8972 43.9286 10.8972C43.154 10.8972 42.7182 11.468 42.7182 12.4441C42.7182 13.4279 43.154 13.9943 43.9286 13.9943C44.7003 13.9943 45.14 13.424 45.14 12.444H45.14Z" fill="white"/>
<path d="M51.7179 14.6975H50.7934L49.8602 11.3811H49.7897L48.8603 14.6975H47.9446L46.7 10.1946H47.6039L48.4128 13.6306H48.4794L49.4077 10.1946H50.2627L51.191 13.6306H51.2616L52.0665 10.1946H52.9577L51.7179 14.6975Z" fill="white"/>
<path d="M54.0046 10.1946H54.8625V10.91H54.9291C55.0421 10.653 55.2326 10.4377 55.4742 10.2939C55.7157 10.15 55.9962 10.085 56.2766 10.1077C56.4963 10.0912 56.717 10.1243 56.9221 10.2044C57.1273 10.2845 57.3118 10.4096 57.4619 10.5704C57.612 10.7313 57.7239 10.9237 57.7893 11.1335C57.8546 11.3434 57.8718 11.5652 57.8396 11.7825V14.6975H56.9484V12.0057C56.9484 11.282 56.6331 10.9222 55.974 10.9222C55.8248 10.9152 55.6759 10.9406 55.5375 10.9964C55.399 11.0522 55.2743 11.1372 55.1719 11.2456C55.0695 11.354 54.9918 11.4832 54.9442 11.6243C54.8965 11.7655 54.88 11.9152 54.8958 12.0633V14.6976H54.0046L54.0046 10.1946Z" fill="white"/>
<path d="M59.2595 8.43677H60.1507V14.6975H59.2595V8.43677Z" fill="white"/>
<path d="M61.3897 12.4441C61.3613 12.1482 61.3953 11.8496 61.4894 11.5675C61.5835 11.2854 61.7357 11.0261 61.9363 10.8061C62.1368 10.5861 62.3812 10.4104 62.6538 10.2901C62.9265 10.1698 63.2213 10.1077 63.5194 10.1077C63.8176 10.1077 64.1124 10.1698 64.385 10.2901C64.6577 10.4104 64.9021 10.5861 65.1026 10.8061C65.3031 11.0261 65.4553 11.2854 65.5494 11.5675C65.6436 11.8496 65.6775 12.1482 65.6492 12.4441C65.6781 12.7404 65.6445 13.0393 65.5506 13.3219C65.4567 13.6044 65.3046 13.8642 65.104 14.0846C64.9035 14.305 64.6589 14.4811 64.386 14.6017C64.1131 14.7222 63.8179 14.7845 63.5194 14.7845C63.221 14.7845 62.9258 14.7222 62.6529 14.6017C62.38 14.4811 62.1354 14.305 61.9348 14.0846C61.7343 13.8642 61.5821 13.6044 61.4883 13.3219C61.3944 13.0393 61.3608 12.7404 61.3897 12.4441ZM64.732 12.4441C64.732 11.4681 64.2923 10.8973 63.5207 10.8973C62.746 10.8973 62.3103 11.4681 62.3103 12.4441C62.3103 13.428 62.7461 13.9944 63.5207 13.9944C64.2923 13.9944 64.7321 13.4241 64.7321 12.4441H64.732Z" fill="white"/>
<path d="M66.5872 13.4241C66.5872 12.6135 67.1924 12.1462 68.2667 12.0798L69.4898 12.0095V11.6208C69.4898 11.1453 69.1745 10.8767 68.5653 10.8767C68.0679 10.8767 67.7232 11.0588 67.6242 11.3772H66.7615C66.8525 10.6038 67.5821 10.1077 68.6065 10.1077C69.7386 10.1077 70.3771 10.6697 70.3771 11.6208V14.6975H69.5192V14.0647H69.4487C69.3056 14.2917 69.1046 14.4767 68.8663 14.6009C68.628 14.7252 68.3609 14.7841 68.0923 14.7717C67.9028 14.7914 67.7112 14.7712 67.5299 14.7125C67.3487 14.6538 67.1817 14.5579 67.0399 14.4309C66.8981 14.3039 66.7845 14.1487 66.7066 13.9753C66.6286 13.8019 66.5879 13.6141 66.5872 13.4241ZM69.4898 13.0393V12.6628L68.3871 12.7331C67.7653 12.7746 67.4832 12.9856 67.4832 13.3826C67.4832 13.7878 67.8358 14.0237 68.3206 14.0237C68.4626 14.038 68.6061 14.0237 68.7425 13.9816C68.8789 13.9395 69.0054 13.8705 69.1144 13.7787C69.2235 13.6868 69.313 13.574 69.3775 13.447C69.442 13.32 69.4802 13.1813 69.4898 13.0393Z" fill="white"/>
<path d="M71.5483 12.4441C71.5483 11.0213 72.2818 10.1199 73.4227 10.1199C73.7049 10.1069 73.985 10.1743 74.2302 10.3142C74.4754 10.4541 74.6756 10.6607 74.8075 10.9099H74.8741V8.43677H75.7652V14.6975H74.9113V13.9861H74.8408C74.6988 14.2336 74.4916 14.4376 74.2416 14.5761C73.9917 14.7146 73.7085 14.7822 73.4227 14.7717C72.274 14.7718 71.5483 13.8704 71.5483 12.4441ZM72.4689 12.4441C72.4689 13.3992 72.9204 13.9739 73.6754 13.9739C74.4265 13.9739 74.8907 13.3909 74.8907 12.448C74.8907 11.5095 74.4217 10.9182 73.6754 10.9182C72.9252 10.9182 72.4689 11.4968 72.4689 12.4441H72.4689Z" fill="white"/>
<path d="M79.4525 12.444C79.4241 12.1481 79.458 11.8496 79.5521 11.5675C79.6462 11.2854 79.7984 11.0261 79.9989 10.8061C80.1994 10.5861 80.4438 10.4103 80.7164 10.2901C80.989 10.1698 81.2839 10.1077 81.582 10.1077C81.8801 10.1077 82.1749 10.1698 82.4475 10.2901C82.7201 10.4103 82.9645 10.5861 83.165 10.8061C83.3655 11.0261 83.5177 11.2854 83.6118 11.5675C83.7059 11.8496 83.7398 12.1481 83.7115 12.444C83.7404 12.7403 83.7068 13.0392 83.613 13.3218C83.5191 13.6043 83.367 13.8641 83.1665 14.0845C82.9659 14.3049 82.7213 14.4811 82.4485 14.6016C82.1756 14.7221 81.8804 14.7844 81.582 14.7844C81.2835 14.7844 80.9883 14.7221 80.7154 14.6016C80.4426 14.4811 80.198 14.3049 79.9974 14.0845C79.7969 13.8641 79.6448 13.6043 79.5509 13.3218C79.4571 13.0392 79.4235 12.7403 79.4525 12.444ZM82.7948 12.444C82.7948 11.468 82.3551 10.8972 81.5834 10.8972C80.8088 10.8972 80.373 11.468 80.373 12.4441C80.373 13.4279 80.8088 13.9943 81.5834 13.9943C82.3551 13.9943 82.7948 13.424 82.7948 12.444Z" fill="white"/>
<path d="M84.907 10.1946H85.7649V10.91H85.8315C85.9444 10.653 86.135 10.4377 86.3765 10.2939C86.6181 10.15 86.8986 10.085 87.179 10.1077C87.3987 10.0912 87.6193 10.1243 87.8245 10.2044C88.0296 10.2845 88.2141 10.4096 88.3642 10.5704C88.5143 10.7313 88.6262 10.9237 88.6916 11.1335C88.757 11.3434 88.7742 11.5652 88.7419 11.7825V14.6975H87.8508V12.0057C87.8508 11.282 87.5354 10.9222 86.8764 10.9222C86.7272 10.9152 86.5783 10.9406 86.4398 10.9964C86.3014 11.0522 86.1767 11.1372 86.0743 11.2456C85.9719 11.354 85.8942 11.4832 85.8465 11.6243C85.7988 11.7655 85.7823 11.9152 85.7981 12.0633V14.6976H84.907V10.1946Z" fill="white"/>
<path d="M93.7777 9.07349V10.2151H94.756V10.9636H93.7777V13.2791C93.7777 13.7507 93.9726 13.9573 94.4162 13.9573C94.5298 13.9569 94.6432 13.9501 94.756 13.9368V14.677C94.596 14.7055 94.4338 14.7207 94.2713 14.7224C93.2802 14.7224 92.8856 14.3747 92.8856 13.5066V10.9636H92.1687V10.215H92.8856V9.07349H93.7777Z" fill="white"/>
<path d="M95.9731 8.43677H96.8565V10.9182H96.927C97.0454 10.6589 97.2412 10.4423 97.4876 10.298C97.734 10.1536 98.019 10.0885 98.3038 10.1116C98.5224 10.0997 98.7409 10.1361 98.9438 10.2181C99.1466 10.3002 99.3288 10.4259 99.4773 10.5862C99.6259 10.7465 99.7371 10.9376 99.8031 11.1457C99.869 11.3539 99.8881 11.5739 99.859 11.7903V14.6975H98.9669V12.0095C98.9669 11.2903 98.631 10.926 98.0013 10.926C97.8482 10.9135 97.6941 10.9345 97.5499 10.9875C97.4057 11.0406 97.2749 11.1244 97.1666 11.2332C97.0583 11.3419 96.9752 11.4729 96.9229 11.6171C96.8707 11.7612 96.8507 11.915 96.8643 12.0676V14.6975H95.9732L95.9731 8.43677Z" fill="white"/>
<path d="M105.055 13.4818C104.934 13.8933 104.672 14.2493 104.314 14.4874C103.956 14.7256 103.526 14.8307 103.099 14.7845C102.801 14.7923 102.505 14.7355 102.232 14.618C101.959 14.5004 101.715 14.325 101.516 14.1039C101.318 13.8827 101.17 13.6212 101.083 13.3374C100.996 13.0535 100.972 12.7543 101.013 12.4603C100.973 12.1654 100.997 11.8655 101.084 11.5808C101.171 11.2961 101.318 11.0334 101.515 10.8103C101.713 10.5872 101.956 10.409 102.228 10.2878C102.501 10.1666 102.796 10.1052 103.095 10.1077C104.351 10.1077 105.109 10.9637 105.109 12.3777V12.6878H101.92V12.7376C101.907 12.9029 101.927 13.0692 101.982 13.226C102.036 13.3827 102.122 13.5264 102.236 13.6479C102.349 13.7693 102.486 13.8658 102.639 13.9312C102.792 13.9966 102.957 14.0295 103.123 14.0276C103.336 14.0532 103.552 14.0149 103.743 13.9177C103.935 13.8205 104.093 13.6687 104.197 13.4817L105.055 13.4818ZM101.92 12.0306H104.201C104.212 11.8795 104.192 11.7277 104.141 11.5849C104.09 11.4422 104.009 11.3117 103.905 11.2019C103.8 11.092 103.673 11.0052 103.533 10.9471C103.393 10.8889 103.242 10.8606 103.09 10.8641C102.936 10.8622 102.783 10.891 102.64 10.949C102.497 11.0069 102.367 11.0928 102.258 11.2015C102.149 11.3102 102.063 11.4396 102.005 11.582C101.947 11.7244 101.918 11.8769 101.92 12.0306H101.92Z" fill="white"/>
</g>
<defs>
<clipPath id="clip0_1_1433">
<rect width="120" height="40" fill="white"/>
</clipPath>
</defs>
</svg>
