<svg width="24" height="24" viewBox="0 0 24 24" fill="none" xmlns="http://www.w3.org/2000/svg">
<rect x="-0.000488281" y="-0.000305176" width="24" height="24" rx="5" fill="#29A7EE"/>
<g clip-path="url(#clip0_1_1307)">
<path d="M11.9989 19.3343C9.05334 19.3343 6.66553 16.9687 6.66553 14.0506C6.66553 13.0541 7.20882 11.6877 8.17198 9.98575C8.45471 9.48613 8.76982 8.96585 9.11175 8.43028C9.63234 7.61488 10.1892 6.80364 10.746 6.03307C10.9409 5.76336 11.1219 5.51783 11.2847 5.30113C11.3418 5.22503 11.3926 5.15789 11.4366 5.10029C11.4632 5.06533 11.4815 5.04159 11.4919 5.0281L11.6095 4.8761C11.8245 4.5981 12.1733 4.59827 12.3882 4.8761L12.5058 5.0281C12.5163 5.04159 12.5345 5.06533 12.5612 5.10029C12.6051 5.15789 12.6559 5.22503 12.7131 5.30113C12.8758 5.51783 13.0569 5.76336 13.2518 6.03307C13.8085 6.80364 14.3654 7.61488 14.886 8.43028C15.2279 8.96585 15.543 9.48613 15.8257 9.98575C16.7889 11.6877 17.3322 13.0541 17.3322 14.0506C17.3322 16.9687 14.9444 19.3343 11.9989 19.3343ZM9.22042 13.9556C9.22042 15.5283 10.5073 16.8032 12.0947 16.8032C12.4474 16.8032 12.7334 16.5199 12.7334 16.1704C12.7334 15.8209 12.4474 15.5376 12.0947 15.5376C11.2128 15.5376 10.4979 14.8293 10.4979 13.9556C10.4979 13.6062 10.2119 13.3229 9.85914 13.3229C9.50638 13.3229 9.22042 13.6062 9.22042 13.9556Z" fill="white"/>
</g>
<defs>
<clipPath id="clip0_1_1307">
<rect width="16" height="16" fill="white" transform="translate(3.99854 4.00165)"/>
</clipPath>
</defs>
</svg>
