<svg width="24" height="24" viewBox="0 0 24 24" fill="none" xmlns="http://www.w3.org/2000/svg">
<rect x="-0.000488281" y="-0.000305176" width="24" height="24" rx="5" fill="#FAC131"/>
<g clip-path="url(#clip0_1_1312)">
<path d="M9.7597 19.9997C9.7261 19.9997 9.69218 19.9943 9.65922 19.9834C9.55746 19.9501 9.47906 19.8675 9.4509 19.7635L8.4909 16.2435C8.46466 16.1475 8.48482 16.0445 8.5453 15.9651C8.6061 15.8864 8.69986 15.8397 8.7997 15.8397H10.2087L12.104 12.3197H8.45506C8.34594 12.3197 8.24418 12.264 8.18562 12.1722C8.12674 12.08 8.11906 11.9648 8.16482 11.8656L11.7095 4.18561C11.7613 4.07233 11.8749 3.99969 11.9997 3.99969H14.2397C14.3495 3.99969 14.4515 4.05601 14.5101 4.14849C14.569 4.24129 14.576 4.35745 14.529 4.45665L11.8653 10.0797H15.5197C15.633 10.0797 15.7383 10.1399 15.7955 10.2375C15.8531 10.3354 15.8544 10.456 15.7994 10.5552L12.8634 15.8397H14.2397C14.3763 15.8397 14.4976 15.9264 14.5421 16.0551C14.5866 16.184 14.5447 16.3271 14.4375 16.4112L9.95746 19.9312C9.90018 19.9763 9.83042 19.9997 9.7597 19.9997Z" fill="white"/>
</g>
<defs>
<clipPath id="clip0_1_1312">
<rect width="16" height="16" fill="white" transform="translate(3.99951 3.99969)"/>
</clipPath>
</defs>
</svg>
