<svg width="24" height="24" viewBox="0 0 24 24" fill="none" xmlns="http://www.w3.org/2000/svg">
<g clip-path="url(#clip0_1_1180)">
<path d="M29.6832 24H-5.68504C-6.03383 24 -6.31665 23.7172 -6.31665 23.3684V0.631607C-6.31665 0.282821 -6.03383 0 -5.68504 0H29.6833C30.0321 0 30.3149 0.282821 30.3149 0.631607V23.3684C30.3149 23.7172 30.032 24 29.6832 24Z" fill="#41479B"/>
<path d="M30.3148 0.631607C30.3148 0.282821 30.032 0 29.6832 0H26.8575L15.1569 7.66593V0H8.84114V7.66593L-2.85941 0H-5.68504C-6.03383 0 -6.31665 0.282821 -6.31665 0.631607V2.26507L3.72188 8.84207H-6.31665V15.1579H3.72188L-6.31665 21.7349V23.3684C-6.31665 23.7172 -6.03383 24 -5.68504 24H-2.85934L8.84128 16.3341V24H15.1571V16.3341L26.8577 24H29.6834C30.0322 24 30.315 23.7172 30.315 23.3684V21.7349L20.2765 15.1579H30.3148V8.84214H20.2763L30.3148 2.26507V0.631607Z" fill="#F5F5F5"/>
<path d="M30.3148 10.1053H13.8939V0H10.1043V10.1053H-6.31665V13.8947H10.1043V24H13.8939V13.8947H30.3148V10.1053Z" fill="#FF4B55"/>
<path d="M6.48628 15.1582L-6.29883 23.4573C-6.25411 23.7623 -6.00263 24.0003 -5.68518 24.0003H-4.81525L8.80637 15.1583H6.48628V15.1582Z" fill="#FF4B55"/>
<path d="M18.4663 15.1582H16.1462L29.748 23.9873C30.0651 23.9535 30.3153 23.6946 30.3153 23.3687V22.8494L18.4663 15.1582Z" fill="#FF4B55"/>
<path d="M-6.31665 1.32972L5.25797 8.84304H7.57806L-5.94869 0.0625C-6.16476 0.162879 -6.31665 0.378589 -6.31665 0.632506V1.32972Z" fill="#FF4B55"/>
<path d="M17.4763 8.84207L30.2921 0.522929C30.2389 0.228017 29.9928 0 29.6825 0H28.7777L15.1562 8.84207H17.4763Z" fill="#FF4B55"/>
</g>
<defs>
<clipPath id="clip0_1_1180">
<rect width="24" height="24" rx="12" fill="white"/>
</clipPath>
</defs>
</svg>
