<svg width="24" height="24" viewBox="0 0 24 24" fill="none" xmlns="http://www.w3.org/2000/svg">
<g clip-path="url(#clip0_1_1071)">
<path d="M29.6838 24.0015H-5.68671C-6.03552 24.0015 -6.31836 23.7186 -6.31836 23.3698V0.631646C-6.31836 0.282838 -6.03552 0 -5.68671 0H29.6838C30.0326 0 30.3155 0.282838 30.3155 0.631646V23.3698C30.3154 23.7187 30.0326 24.0015 29.6838 24.0015Z" fill="#F5F5F5"/>
<path d="M30.3154 1.84636H-6.31836V0.631646C-6.31836 0.282838 -6.03552 0 -5.68671 0H29.6838C30.0326 0 30.3155 0.282838 30.3155 0.631646L30.3154 1.84636Z" fill="#FF4B55"/>
<path d="M30.3154 7.38458H-6.31836V9.23087H30.3154V7.38458Z" fill="#FF4B55"/>
<path d="M30.3154 3.69336H-6.31836V5.53964H30.3154V3.69336Z" fill="#FF4B55"/>
<path d="M30.3154 12.9245H-5.68671C-6.03552 12.9245 -6.31836 12.6416 -6.31836 12.2928V11.0781H30.3154V12.9245Z" fill="#FF4B55"/>
<path d="M30.3154 18.463H-6.31836V20.3093H30.3154V18.463Z" fill="#FF4B55"/>
<path d="M29.6838 24.0006H-5.68671C-6.03552 24.0006 -6.31836 23.7177 -6.31836 23.3689V22.1543H30.3154V23.369C30.3154 23.7178 30.0326 24.0006 29.6838 24.0006Z" fill="#FF4B55"/>
<path d="M30.3154 14.7695H-6.31836V16.6158H30.3154V14.7695Z" fill="#FF4B55"/>
<path d="M10.1037 0H-5.68671C-6.03552 0 -6.31836 0.282767 -6.31836 0.631574V12.2921C-6.31836 12.6409 -6.03552 12.9238 -5.68671 12.9238H10.1037C10.4525 12.9238 10.7354 12.6409 10.7354 12.2921V0.631574C10.7353 0.282767 10.4525 0 10.1037 0Z" fill="#41479B"/>
<path d="M0.562718 2.52493L0.702527 2.94421L1.14449 2.94758C1.20173 2.94808 1.22542 3.02106 1.17941 3.05505L0.823877 3.31763L0.957246 3.739C0.974561 3.79352 0.912384 3.83874 0.865805 3.80539L0.506265 3.54839L0.146724 3.80539C0.100145 3.83866 0.0381111 3.79352 0.0552832 3.739L0.188653 3.31763L-0.166881 3.05505C-0.212888 3.02099 -0.189205 2.94808 -0.131964 2.94758L0.310002 2.94421L0.449812 2.52493C0.467771 2.47069 0.544616 2.47069 0.562718 2.52493Z" fill="#F5F5F5"/>
<path d="M0.562718 4.71639L0.702527 5.13567L1.14449 5.13904C1.20173 5.13954 1.22542 5.21252 1.17941 5.24651L0.823877 5.50909L0.957246 5.93046C0.974561 5.98498 0.912384 6.0302 0.865805 5.99685L0.506265 5.73985L0.146724 5.99685C0.100145 6.03012 0.0381111 5.98505 0.0552832 5.93046L0.188653 5.50909L-0.166881 5.24651C-0.212888 5.21245 -0.189205 5.13954 -0.131964 5.13904L0.310002 5.13567L0.449812 4.71639C0.467771 4.66208 0.544616 4.66208 0.562718 4.71639Z" fill="#F5F5F5"/>
<path d="M0.562718 6.90975L0.702527 7.32903L1.14449 7.3324C1.20173 7.3329 1.22542 7.40588 1.17941 7.43986L0.823877 7.70245L0.957246 8.12381C0.974561 8.17833 0.912384 8.22356 0.865805 8.19021L0.506265 7.9332L0.146724 8.19021C0.100145 8.22348 0.0381111 8.17833 0.0552832 8.12381L0.188653 7.70245L-0.166881 7.43986C-0.212888 7.40581 -0.189205 7.3329 -0.131964 7.3324L0.310002 7.32903L0.449812 6.90975C0.467771 6.85544 0.544616 6.85544 0.562718 6.90975Z" fill="#F5F5F5"/>
<path d="M0.562718 9.10501L0.702527 9.52429L1.14449 9.52766C1.20173 9.52816 1.22542 9.60114 1.17941 9.63512L0.823877 9.89771L0.957246 10.3191C0.974561 10.3736 0.912384 10.4188 0.865805 10.3855L0.506265 10.1285L0.146724 10.3855C0.100145 10.4187 0.0381111 10.3736 0.0552832 10.3191L0.188653 9.89771L-0.166881 9.63512C-0.212888 9.60107 -0.189205 9.52816 -0.131964 9.52766L0.310002 9.52429L0.449812 9.10501C0.467771 9.05077 0.544616 9.05077 0.562718 9.10501Z" fill="#F5F5F5"/>
<path d="M2.26396 1.44881L2.40377 1.8681L2.84574 1.87146C2.90298 1.87196 2.92666 1.94494 2.88065 1.97893L2.52512 2.24152L2.65849 2.66288C2.6758 2.7174 2.61363 2.76262 2.56705 2.72928L2.20744 2.47227L1.8479 2.72928C1.80132 2.76255 1.73928 2.7174 1.75646 2.66288L1.88982 2.24152L1.53429 1.97893C1.48828 1.94487 1.51197 1.87196 1.56921 1.87146L2.01117 1.8681L2.15098 1.44881C2.16909 1.3945 2.24586 1.3945 2.26396 1.44881Z" fill="#F5F5F5"/>
<path d="M2.26396 3.64212L2.40377 4.0614L2.84574 4.06476C2.90298 4.06527 2.92666 4.13825 2.88065 4.17223L2.52512 4.43482L2.65849 4.85618C2.6758 4.9107 2.61363 4.95592 2.56705 4.92258L2.20744 4.66557L1.8479 4.92258C1.80132 4.95585 1.73928 4.9107 1.75646 4.85618L1.88982 4.43482L1.53429 4.17223C1.48828 4.13818 1.51197 4.06527 1.56921 4.06476L2.01117 4.0614L2.15098 3.64212C2.16909 3.58788 2.24586 3.58788 2.26396 3.64212Z" fill="#F5F5F5"/>
<path d="M2.26396 5.83352L2.40377 6.25281L2.84574 6.25617C2.90298 6.25667 2.92666 6.32965 2.88065 6.36364L2.52512 6.62623L2.65849 7.04759C2.6758 7.10211 2.61363 7.14733 2.56705 7.11399L2.20744 6.85698L1.8479 7.11399C1.80132 7.14726 1.73928 7.10211 1.75646 7.04759L1.88982 6.62623L1.53429 6.36364C1.48828 6.32958 1.51197 6.25667 1.56921 6.25617L2.01117 6.25281L2.15098 5.83352C2.16909 5.77929 2.24586 5.77929 2.26396 5.83352Z" fill="#F5F5F5"/>
<path d="M2.26396 8.02889L2.40377 8.44817L2.84574 8.45154C2.90298 8.45204 2.92666 8.52502 2.88065 8.55901L2.52512 8.82159L2.65849 9.24295C2.6758 9.29748 2.61363 9.3427 2.56705 9.30935L2.20744 9.05234L1.8479 9.30935C1.80132 9.34262 1.73928 9.29748 1.75646 9.24295L1.88982 8.82159L1.53429 8.55901C1.48828 8.52495 1.51197 8.45204 1.56921 8.45154L2.01117 8.44817L2.15098 8.02889C2.16909 7.97458 2.24586 7.97458 2.26396 8.02889Z" fill="#F5F5F5"/>
<path d="M2.26396 10.2223L2.40377 10.6416L2.84574 10.6449C2.90298 10.6455 2.92666 10.7184 2.88065 10.7524L2.52512 11.015L2.65849 11.4364C2.6758 11.4909 2.61363 11.5361 2.56705 11.5028L2.20744 11.2458L1.8479 11.5028C1.80132 11.536 1.73928 11.4909 1.75646 11.4364L1.88982 11.015L1.53429 10.7524C1.48828 10.7184 1.51197 10.6455 1.56921 10.6449L2.01117 10.6416L2.15098 10.2223C2.16909 10.1679 2.24586 10.1679 2.26396 10.2223Z" fill="#F5F5F5"/>
<path d="M3.96677 2.52499L4.10658 2.94428L4.54855 2.94764C4.60579 2.94814 4.62947 3.02112 4.58346 3.05511L4.22793 3.3177L4.3613 3.73906C4.37861 3.79358 4.31644 3.8388 4.26986 3.80545L3.91032 3.54845L3.55078 3.80545C3.5042 3.83873 3.44216 3.79358 3.45934 3.73906L3.5927 3.3177L3.23717 3.05511C3.19116 3.02105 3.21485 2.94814 3.27209 2.94764L3.71406 2.94428L3.85386 2.52499C3.87197 2.47076 3.94867 2.47076 3.96677 2.52499Z" fill="#F5F5F5"/>
<path d="M3.96677 4.71627L4.10658 5.13555L4.54855 5.13891C4.60579 5.13942 4.62947 5.2124 4.58346 5.24638L4.22793 5.50897L4.3613 5.93033C4.37861 5.98485 4.31644 6.03007 4.26986 5.99673L3.91032 5.73972L3.55078 5.99673C3.5042 6.03 3.44216 5.98493 3.45934 5.93033L3.5927 5.50897L3.23717 5.24638C3.19116 5.21233 3.21485 5.13942 3.27209 5.13891L3.71406 5.13555L3.85386 4.71627C3.87197 4.66196 3.94867 4.66196 3.96677 4.71627Z" fill="#F5F5F5"/>
<path d="M3.96702 6.90975L4.10682 7.32903L4.54879 7.3324C4.60603 7.3329 4.62971 7.40588 4.58371 7.43986L4.22817 7.70245L4.36154 8.12381C4.37886 8.17833 4.31668 8.22356 4.2701 8.19021L3.91056 7.9332L3.55102 8.19021C3.50444 8.22348 3.44241 8.17833 3.45958 8.12381L3.59295 7.70245L3.23742 7.43986C3.19141 7.40581 3.21509 7.3329 3.27233 7.3324L3.7143 7.32903L3.85411 6.90975C3.87221 6.85544 3.94891 6.85544 3.96702 6.90975Z" fill="#F5F5F5"/>
<path d="M3.96702 9.10501L4.10682 9.52429L4.54879 9.52766C4.60603 9.52816 4.62971 9.60114 4.58371 9.63512L4.22817 9.89771L4.36154 10.3191C4.37886 10.3736 4.31668 10.4188 4.2701 10.3855L3.91056 10.1285L3.55102 10.3855C3.50444 10.4187 3.44241 10.3736 3.45958 10.3191L3.59295 9.89771L3.23742 9.63512C3.19141 9.60107 3.21509 9.52816 3.27233 9.52766L3.7143 9.52429L3.85411 9.10501C3.87221 9.05077 3.94891 9.05077 3.96702 9.10501Z" fill="#F5F5F5"/>
<path d="M5.66819 1.44881L5.808 1.8681L6.24996 1.87146C6.3072 1.87196 6.33089 1.94494 6.28488 1.97893L5.92935 2.24152L6.06272 2.66288C6.08003 2.7174 6.01785 2.76262 5.97127 2.72928L5.61173 2.47227L5.25219 2.72928C5.20561 2.76255 5.14358 2.7174 5.16075 2.66288L5.29412 2.24152L4.93859 1.97893C4.89258 1.94487 4.91626 1.87196 4.9735 1.87146L5.41547 1.8681L5.55528 1.44881C5.57324 1.3945 5.65008 1.3945 5.66819 1.44881Z" fill="#F5F5F5"/>
<path d="M5.66819 3.64212L5.808 4.0614L6.24996 4.06476C6.3072 4.06527 6.33089 4.13825 6.28488 4.17223L5.92935 4.43482L6.06272 4.85618C6.08003 4.9107 6.01785 4.95592 5.97127 4.92258L5.61173 4.66557L5.25219 4.92258C5.20561 4.95585 5.14358 4.9107 5.16075 4.85618L5.29412 4.43482L4.93859 4.17223C4.89258 4.13818 4.91626 4.06527 4.9735 4.06476L5.41547 4.0614L5.55528 3.64212C5.57324 3.58788 5.65008 3.58788 5.66819 3.64212Z" fill="#F5F5F5"/>
<path d="M5.66819 5.83352L5.808 6.25281L6.24996 6.25617C6.3072 6.25667 6.33089 6.32965 6.28488 6.36364L5.92935 6.62623L6.06272 7.04759C6.08003 7.10211 6.01785 7.14733 5.97127 7.11399L5.61173 6.85698L5.25219 7.11399C5.20561 7.14726 5.14358 7.10211 5.16075 7.04759L5.29412 6.62623L4.93859 6.36364C4.89258 6.32958 4.91626 6.25667 4.9735 6.25617L5.41547 6.25281L5.55528 5.83352C5.57324 5.77929 5.65008 5.77929 5.66819 5.83352Z" fill="#F5F5F5"/>
<path d="M5.66819 8.02889L5.808 8.44817L6.24996 8.45154C6.3072 8.45204 6.33089 8.52502 6.28488 8.55901L5.92935 8.82159L6.06272 9.24295C6.08003 9.29748 6.01785 9.3427 5.97127 9.30935L5.61173 9.05234L5.25219 9.30935C5.20561 9.34262 5.14358 9.29748 5.16075 9.24295L5.29412 8.82159L4.93859 8.55901C4.89258 8.52495 4.91626 8.45204 4.9735 8.45154L5.41547 8.44817L5.55528 8.02889C5.57324 7.97458 5.65008 7.97458 5.66819 8.02889Z" fill="#F5F5F5"/>
<path d="M5.66819 10.2223L5.808 10.6416L6.24996 10.6449C6.3072 10.6455 6.33089 10.7184 6.28488 10.7524L5.92935 11.015L6.06272 11.4364C6.08003 11.4909 6.01785 11.5361 5.97127 11.5028L5.61173 11.2458L5.25219 11.5028C5.20561 11.536 5.14358 11.4909 5.16075 11.4364L5.29412 11.015L4.93859 10.7524C4.89258 10.7184 4.91626 10.6455 4.9735 10.6449L5.41547 10.6416L5.55528 10.2223C5.57324 10.1679 5.65008 10.1679 5.66819 10.2223Z" fill="#F5F5F5"/>
<path d="M7.37522 2.52493L7.51503 2.94421L7.95699 2.94758C8.01423 2.94808 8.03792 3.02106 7.99191 3.05505L7.63638 3.31763L7.76975 3.739C7.78706 3.79352 7.72488 3.83874 7.67831 3.80539L7.31876 3.54839L6.95922 3.80539C6.91264 3.83866 6.85061 3.79352 6.86778 3.739L7.00115 3.31763L6.64562 3.05505C6.59961 3.02099 6.62329 2.94808 6.68054 2.94758L7.1225 2.94421L7.26231 2.52493C7.28034 2.47069 7.35719 2.47069 7.37522 2.52493Z" fill="#F5F5F5"/>
<path d="M7.37522 4.71639L7.51503 5.13567L7.95699 5.13904C8.01423 5.13954 8.03792 5.21252 7.99191 5.24651L7.63638 5.50909L7.76975 5.93046C7.78706 5.98498 7.72488 6.0302 7.67831 5.99685L7.31876 5.73985L6.95922 5.99685C6.91264 6.03012 6.85061 5.98505 6.86778 5.93046L7.00115 5.50909L6.64562 5.24651C6.59961 5.21245 6.62329 5.13954 6.68054 5.13904L7.1225 5.13567L7.26231 4.71639C7.28034 4.66208 7.35719 4.66208 7.37522 4.71639Z" fill="#F5F5F5"/>
<path d="M7.37522 6.90975L7.51503 7.32903L7.95699 7.3324C8.01423 7.3329 8.03792 7.40588 7.99191 7.43986L7.63638 7.70245L7.76975 8.12381C7.78706 8.17833 7.72488 8.22356 7.67831 8.19021L7.31876 7.9332L6.95922 8.19021C6.91264 8.22348 6.85061 8.17833 6.86778 8.12381L7.00115 7.70245L6.64562 7.43986C6.59961 7.40581 6.62329 7.3329 6.68054 7.3324L7.1225 7.32903L7.26231 6.90975C7.28034 6.85544 7.35719 6.85544 7.37522 6.90975Z" fill="#F5F5F5"/>
<path d="M7.37522 9.10501L7.51503 9.52429L7.95699 9.52766C8.01423 9.52816 8.03792 9.60114 7.99191 9.63512L7.63638 9.89771L7.76975 10.3191C7.78706 10.3736 7.72488 10.4188 7.67831 10.3855L7.31876 10.1285L6.95922 10.3855C6.91264 10.4187 6.85061 10.3736 6.86778 10.3191L7.00115 9.89771L6.64562 9.63512C6.59961 9.60107 6.62329 9.52816 6.68054 9.52766L7.1225 9.52429L7.26231 9.10501C7.28034 9.05077 7.35719 9.05077 7.37522 9.10501Z" fill="#F5F5F5"/>
<path d="M9.07444 1.44881L9.21425 1.8681L9.65621 1.87146C9.71345 1.87196 9.73714 1.94494 9.69113 1.97893L9.3356 2.24152L9.46896 2.66288C9.48628 2.7174 9.4241 2.76262 9.37752 2.72928L9.01798 2.47227L8.65844 2.72928C8.61186 2.76255 8.54983 2.7174 8.567 2.66288L8.70037 2.24152L8.34484 1.97893C8.29883 1.94487 8.32251 1.87196 8.37975 1.87146L8.82172 1.8681L8.96153 1.44881C8.97956 1.3945 9.05626 1.3945 9.07444 1.44881Z" fill="#F5F5F5"/>
<path d="M9.07444 3.64212L9.21425 4.0614L9.65621 4.06476C9.71345 4.06527 9.73714 4.13825 9.69113 4.17223L9.3356 4.43482L9.46896 4.85618C9.48628 4.9107 9.4241 4.95592 9.37752 4.92258L9.01798 4.66557L8.65844 4.92258C8.61186 4.95585 8.54983 4.9107 8.567 4.85618L8.70037 4.43482L8.34484 4.17223C8.29883 4.13818 8.32251 4.06527 8.37975 4.06476L8.82172 4.0614L8.96153 3.64212C8.97956 3.58788 9.05626 3.58788 9.07444 3.64212Z" fill="#F5F5F5"/>
<path d="M9.07444 5.83352L9.21425 6.25281L9.65621 6.25617C9.71345 6.25667 9.73714 6.32965 9.69113 6.36364L9.3356 6.62623L9.46896 7.04759C9.48628 7.10211 9.4241 7.14733 9.37752 7.11399L9.01798 6.85698L8.65844 7.11399C8.61186 7.14726 8.54983 7.10211 8.567 7.04759L8.70037 6.62623L8.34484 6.36364C8.29883 6.32958 8.32251 6.25667 8.37975 6.25617L8.82172 6.25281L8.96153 5.83352C8.97956 5.77929 9.05626 5.77929 9.07444 5.83352Z" fill="#F5F5F5"/>
<path d="M9.07444 8.02889L9.21425 8.44817L9.65621 8.45154C9.71345 8.45204 9.73714 8.52502 9.69113 8.55901L9.3356 8.82159L9.46896 9.24295C9.48628 9.29748 9.4241 9.3427 9.37752 9.30935L9.01798 9.05234L8.65844 9.30935C8.61186 9.34262 8.54983 9.29748 8.567 9.24295L8.70037 8.82159L8.34484 8.55901C8.29883 8.52495 8.32251 8.45204 8.37975 8.45154L8.82172 8.44817L8.96153 8.02889C8.97956 7.97458 9.05626 7.97458 9.07444 8.02889Z" fill="#F5F5F5"/>
<path d="M9.07444 10.2223L9.21425 10.6416L9.65621 10.6449C9.71345 10.6455 9.73714 10.7184 9.69113 10.7524L9.3356 11.015L9.46896 11.4364C9.48628 11.4909 9.4241 11.5361 9.37752 11.5028L9.01798 11.2458L8.65844 11.5028C8.61186 11.536 8.54983 11.4909 8.567 11.4364L8.70037 11.015L8.34484 10.7524C8.29883 10.7184 8.32251 10.6455 8.37975 10.6449L8.82172 10.6416L8.96153 10.2223C8.97956 10.1679 9.05626 10.1679 9.07444 10.2223Z" fill="#F5F5F5"/>
</g>
<defs>
<clipPath id="clip0_1_1071">
<rect width="24" height="24" rx="12" fill="white"/>
</clipPath>
</defs>
</svg>
