<svg width="36" height="36" viewBox="0 0 36 36" fill="none" xmlns="http://www.w3.org/2000/svg">
  <path fill-rule="evenodd" clip-rule="evenodd"
    d="M23.465 24L24.3632 25.2417C25.1398 26.3152 26.395 27 27.8011 27C30.3506 27 32.3232 24.7655 32.007 22.2357L30.8452 12.9418C30.5637 10.6899 28.6494 9 26.38 9H9.62172C7.35226 9 5.43796 10.6899 5.15647 12.9418L3.99474 22.2357C3.67851 24.7655 5.65108 27 8.20057 27C9.60667 27 10.8619 26.3152 11.6385 25.2417L12.5367 24H23.465ZM21.9326 27C23.2514 28.8232 25.3958 30 27.8011 30C32.1551 30 35.5238 26.184 34.9838 21.8636L33.8221 12.5697C33.3529 8.81652 30.1624 6 26.38 6H9.62172C5.83929 6 2.64879 8.81652 2.17963 12.5697L1.0179 21.8636C0.477856 26.184 3.84659 30 8.20057 30C10.6059 30 12.7503 28.8232 14.0691 27H21.9326Z"
    fill="#A5AAB4" />
  <path
    d="M12 12C11.1716 12 10.5 12.6716 10.5 13.5V15H9C8.17157 15 7.5 15.6716 7.5 16.5C7.5 17.3284 8.17157 18 9 18H10.5V19.5C10.5 20.3284 11.1716 21 12 21C12.8284 21 13.5 20.3284 13.5 19.5V18H15C15.8284 18 16.5 17.3284 16.5 16.5C16.5 15.6716 15.8284 15 15 15H13.5V13.5C13.5 12.6716 12.8284 12 12 12Z"
    fill="#A5AAB4" />
  <path
    d="M27 15C27.8284 15 28.5 14.3284 28.5 13.5C28.5 12.6716 27.8284 12 27 12C26.1716 12 25.5 12.6716 25.5 13.5C25.5 14.3284 26.1716 15 27 15Z"
    fill="#A5AAB4" />
  <path
    d="M24 21C24.8284 21 25.5 20.3284 25.5 19.5C25.5 18.6716 24.8284 18 24 18C23.1716 18 22.5 18.6716 22.5 19.5C22.5 20.3284 23.1716 21 24 21Z"
    fill="#A5AAB4" />
</svg>