<svg width="24" height="24" viewBox="0 0 24 24" fill="none" xmlns="http://www.w3.org/2000/svg">
<rect x="-0.000488281" y="-0.000305176" width="24" height="24" rx="5" fill="#F75555"/>
<path d="M17.2457 13.7649C17.2313 12.0114 16.3014 10.2972 15.6207 9.0434C15.4699 8.76469 15.3282 8.50501 15.2095 8.26631L14.9636 7.77448C14.8115 7.52267 14.6357 7.48267 14.4233 7.77252C14.4233 7.77252 14.0718 8.23221 13.8482 8.55419C13.0409 6.96986 12.6271 5.74423 12.6219 5.72849L12.4514 5.21764C12.3353 4.8996 12.1524 4.8596 11.8992 5.10944L11.5366 5.47208C11.3405 5.66816 6.75342 10.2953 6.75342 13.8056C6.75342 16.6982 9.10697 19.0517 11.9996 19.0517C14.8922 19.0517 17.2457 16.6982 17.2457 13.8056C17.2457 13.8049 17.2457 13.8043 17.2457 13.8036C17.2457 13.7931 17.2457 13.7839 17.2457 13.7735L17.2496 13.7682L17.2457 13.7649ZM10.0336 15.6752C10.0828 14.1577 11.2651 12.6593 11.772 12.0842C11.8671 11.9766 12.0356 12.0232 12.0743 12.1616C12.5576 13.9125 14.0469 14.5066 13.9669 15.7729C13.8954 16.9067 13.0108 17.8202 11.85 17.7349C10.812 17.6582 10.0001 16.7159 10.0336 15.6752Z" fill="white"/>
</svg>
