<svg width="36" height="36" viewBox="0 0 36 36" fill="none" xmlns="http://www.w3.org/2000/svg">
  <path fill-rule="evenodd" clip-rule="evenodd"
    d="M18 30C24.6274 30 30 24.6274 30 18C30 11.3726 24.6274 6 18 6C11.3726 6 6 11.3726 6 18C6 24.6274 11.3726 30 18 30ZM18 33C26.2843 33 33 26.2843 33 18C33 9.71573 26.2843 3 18 3C9.71573 3 3 9.71573 3 18C3 26.2843 9.71573 33 18 33Z"
    fill="#A5AAB4" />
  <path fill-rule="evenodd" clip-rule="evenodd"
    d="M20.62 27.265C21.7281 25.0489 22.5 21.7774 22.5 18C22.5 14.2226 21.7281 10.9511 20.62 8.73504C19.4222 6.33949 18.3226 6 18 6C17.6774 6 16.5778 6.33949 15.38 8.73504C14.2719 10.9511 13.5 14.2226 13.5 18C13.5 21.7774 14.2719 25.0489 15.38 27.265C16.5778 29.6605 17.6774 30 18 30C18.3226 30 19.4222 29.6605 20.62 27.265ZM18 33C22.1421 33 25.5 26.2843 25.5 18C25.5 9.71573 22.1421 3 18 3C13.8579 3 10.5 9.71573 10.5 18C10.5 26.2843 13.8579 33 18 33Z"
    fill="#A5AAB4" />
  <path fill-rule="evenodd" clip-rule="evenodd"
    d="M32.9259 19.5C32.9749 19.0066 33 18.5062 33 18C33 17.4938 32.9749 16.9934 32.9259 16.5H3.07406C3.02508 16.9934 3 17.4938 3 18C3 18.5062 3.02508 19.0066 3.07406 19.5H32.9259Z"
    fill="#A5AAB4" />
</svg>