<svg width="36" height="36" viewBox="0 0 36 36" fill="none" xmlns="http://www.w3.org/2000/svg">
  <path fill-rule="evenodd" clip-rule="evenodd"
    d="M6 4.5C3.51472 4.5 1.5 6.51472 1.5 9V12C1.5 14.4853 3.51472 16.5 6 16.5H9C11.4853 16.5 13.5 14.4853 13.5 12V9C13.5 6.51472 11.4853 4.5 9 4.5H6ZM9 7.5H6C5.17157 7.5 4.5 8.17157 4.5 9V12C4.5 12.8284 5.17157 13.5 6 13.5H9C9.82843 13.5 10.5 12.8284 10.5 12V9C10.5 8.17157 9.82843 7.5 9 7.5Z"
    fill="#A5AAB4" />
  <path fill-rule="evenodd" clip-rule="evenodd"
    d="M6 19.5C3.51472 19.5 1.5 21.5147 1.5 24V27C1.5 29.4853 3.51472 31.5 6 31.5H9C11.4853 31.5 13.5 29.4853 13.5 27V24C13.5 21.5147 11.4853 19.5 9 19.5H6ZM9 22.5H6C5.17157 22.5 4.5 23.1716 4.5 24V27C4.5 27.8284 5.17157 28.5 6 28.5H9C9.82843 28.5 10.5 27.8284 10.5 27V24C10.5 23.1716 9.82843 22.5 9 22.5Z"
    fill="#A5AAB4" />
  <path fill-rule="evenodd" clip-rule="evenodd"
    d="M22.5 16.5C22.5 14.0147 24.5147 12 27 12H30C32.4853 12 34.5 14.0147 34.5 16.5V19.5C34.5 21.9853 32.4853 24 30 24H27C24.5147 24 22.5 21.9853 22.5 19.5V16.5ZM27 15H30C30.8284 15 31.5 15.6716 31.5 16.5V19.5C31.5 20.3284 30.8284 21 30 21H27C26.1716 21 25.5 20.3284 25.5 19.5V16.5C25.5 15.6716 26.1716 15 27 15Z"
    fill="#A5AAB4" />
  <path
    d="M13.5 12H15C15.8284 12 16.5 12.6716 16.5 13.5V22.5C16.5 23.3284 15.8284 24 15 24H13.5V27H15C17.4853 27 19.5 24.9853 19.5 22.5V19.5H22.5V16.5H19.5V13.5C19.5 11.0147 17.4853 9 15 9H13.5V12Z"
    fill="#A5AAB4" />
</svg>