<svg width="24" height="24" viewBox="0 0 24 24" fill="none" xmlns="http://www.w3.org/2000/svg">
<rect x="-0.000488281" y="-0.000305176" width="24" height="24" rx="5" fill="#FA8231"/>
<g clip-path="url(#clip0_1_1317)">
<path d="M11.9998 19.3324C9.05432 19.3324 6.6665 16.9668 6.6665 14.0486C6.6665 13.0521 7.2098 11.6858 8.17295 9.98379C8.45569 9.48417 8.7708 8.96389 9.11273 8.42832C9.63331 7.61293 10.1901 6.80168 10.7469 6.03112C10.9418 5.7614 11.1229 5.51588 11.2856 5.29917C11.3428 5.22308 11.3936 5.15594 11.4375 5.09833C11.4642 5.06337 11.4824 5.03964 11.4929 5.02615L11.6105 4.87415C11.8255 4.59614 12.1743 4.59632 12.3892 4.87415L12.5068 5.02615C12.5172 5.03964 12.5355 5.06337 12.5621 5.09833C12.6061 5.15594 12.6569 5.22308 12.714 5.29917C12.8767 5.51588 13.0578 5.7614 13.2527 6.03112C13.8095 6.80168 14.3664 7.61293 14.8869 8.42832C15.2289 8.96389 15.544 9.48417 15.8267 9.98379C16.7899 11.6858 17.3332 13.0521 17.3332 14.0486C17.3332 16.9668 14.9454 19.3324 11.9998 19.3324ZM9.22139 13.9537C9.22139 15.5263 10.5082 16.8012 12.0956 16.8012C12.4484 16.8012 12.7344 16.5179 12.7344 16.1684C12.7344 15.819 12.4484 15.5357 12.0956 15.5357C11.2138 15.5357 10.4988 14.8274 10.4988 13.9537C10.4988 13.6042 10.2129 13.3209 9.86012 13.3209C9.50736 13.3209 9.22139 13.6042 9.22139 13.9537Z" fill="white"/>
</g>
<defs>
<clipPath id="clip0_1_1317">
<rect width="16" height="16" fill="white" transform="translate(3.99951 3.99969)"/>
</clipPath>
</defs>
</svg>
