<svg width="20" height="20" viewBox="0 0 20 20" fill="none" xmlns="http://www.w3.org/2000/svg">
  <path fill-rule="evenodd" clip-rule="evenodd"
    d="M13.8679 13.5377C15.0352 11.9174 15.8333 10.1366 15.8333 8.33398C15.8333 5.11233 13.2217 2.50065 10 2.50065C6.77834 2.50065 4.16667 5.11233 4.16667 8.33398C4.16667 10.1366 4.96474 11.9174 6.13205 13.5377C7.29057 15.1458 8.71508 16.4592 9.73075 17.2911C9.89733 17.4275 10.1027 17.4275 10.2692 17.2911C11.2849 16.4592 12.7094 15.1458 13.8679 13.5377ZM11.3253 18.5804C13.4788 16.8166 17.5 12.9104 17.5 8.33398C17.5 4.19185 14.1422 0.833984 10 0.833984C5.85787 0.833984 2.5 4.19185 2.5 8.33398C2.5 12.9104 6.52114 16.8166 8.67467 18.5804C9.4555 19.2199 10.5445 19.2199 11.3253 18.5804Z"
    fill="#32B141" />
  <path fill-rule="evenodd" clip-rule="evenodd"
    d="M9.99935 6.66667C9.07885 6.66667 8.33268 7.41286 8.33268 8.33333C8.33268 9.25383 9.07885 10 9.99935 10C10.9198 10 11.666 9.25383 11.666 8.33333C11.666 7.41286 10.9198 6.66667 9.99935 6.66667ZM6.66602 8.33333C6.66602 6.49238 8.1584 5 9.99935 5C11.8403 5 13.3327 6.49238 13.3327 8.33333C13.3327 10.1742 11.8403 11.6667 9.99935 11.6667C8.1584 11.6667 6.66602 10.1742 6.66602 8.33333Z"
    fill="#32B141" />
</svg>