<svg width="20" height="20" viewBox="0 0 20 20" fill="none" xmlns="http://www.w3.org/2000/svg">
  <path fill-rule="evenodd" clip-rule="evenodd"
    d="M3.87268 1.96081C4.94846 0.885031 6.72763 1.01147 7.64045 2.22857L9.1557 4.24887C9.90212 5.24417 9.8032 6.63691 8.92345 7.51664L7.8063 8.63378C7.91457 8.91561 8.27097 9.53395 9.35629 10.6193C10.4416 11.7046 11.06 12.061 11.3419 12.1693L12.459 11.0522C13.3387 10.1724 14.7315 10.0734 15.7267 10.8199L17.747 12.3352C18.9641 13.248 19.0906 15.0272 18.0148 16.1029C17.665 16.4527 17.6059 16.5119 17.0222 17.0955C16.4274 17.6904 15.1644 18.2464 13.8855 18.3019C11.8845 18.3889 9.16637 17.5004 5.82077 14.1549C2.47521 10.8093 1.58666 8.09115 1.67366 6.09004C1.72206 4.97687 2.07597 3.75426 2.88475 2.95805C3.46375 2.36974 3.53905 2.29444 3.87268 1.96081ZM3.33875 6.16244C3.27845 7.54956 3.86304 9.84011 6.99929 12.9764C10.1355 16.1126 12.426 16.6972 13.8132 16.6369C15.108 16.5805 15.8027 15.9549 15.8437 15.917L16.8363 14.9244C17.1949 14.5659 17.1528 13.9728 16.747 13.6685L14.7267 12.1533C14.395 11.9044 13.9307 11.9374 13.6375 12.2307C13.1957 12.6725 12.894 12.9785 12.3037 13.5667C11.0774 14.7884 8.97812 12.5981 8.1778 11.7979C7.44231 11.0624 5.20093 8.89645 6.40771 7.67536C6.41011 7.67296 6.73515 7.34791 7.74493 6.33813C8.03817 6.04489 8.07117 5.58064 7.82235 5.24887L6.30711 3.22857C6.00284 2.82287 5.40978 2.78072 5.0512 3.13931C4.72115 3.46936 4.34763 3.84287 4.05961 4.1329C3.4668 4.72981 3.37048 5.43277 3.33875 6.16244Z"
    fill="#32B141" />
</svg>