<svg width="20" height="20" viewBox="0 0 20 20" fill="none" xmlns="http://www.w3.org/2000/svg">
  <path opacity="0.418" fill-rule="evenodd" clip-rule="evenodd"
    d="M8.39657 2.82031V5.22339C7.14119 5.22339 5.97247 5.62749 4.89093 6.4357C3.80888 7.24339 3.26837 8.20852 3.26837 9.33006C3.26837 9.99775 3.53503 10.3316 4.0699 10.3316C4.1899 10.3316 4.43042 10.2849 4.79093 10.1916C5.16478 10.1111 5.46529 10.0711 5.69247 10.0711C6.42683 10.0711 7.11811 10.3685 7.7658 10.9629C8.41349 11.5572 8.73708 12.3752 8.73708 13.4167C8.73708 14.4316 8.40324 15.3029 7.73554 16.0306C7.06785 16.7588 6.15298 17.1229 4.99093 17.1229C3.60221 17.1229 2.48067 16.5983 1.6258 15.5501C0.770929 14.5018 0.34375 13.0424 0.34375 11.1731C0.34375 8.5957 1.12837 6.5757 2.6976 5.11313C4.26683 3.65159 6.16631 2.88698 8.39657 2.82031ZM19.394 2.82031V5.22339C18.2058 5.22339 17.054 5.62082 15.9386 6.41518C14.8237 7.21006 14.2658 8.18134 14.2658 9.33006C14.2658 9.99775 14.533 10.3316 15.0673 10.3316C15.1873 10.3316 15.4279 10.2849 15.7884 10.1916C16.1627 10.1111 16.4627 10.0711 16.6899 10.0711C17.4643 10.0711 18.1653 10.3788 18.793 10.9926C19.4207 11.607 19.7345 12.4152 19.7345 13.4167C19.7345 14.4316 19.4012 15.3029 18.733 16.0306C18.0653 16.7588 17.1504 17.1229 15.9889 17.1229C14.5996 17.1229 13.4781 16.5983 12.6232 15.5501C11.7689 14.5018 11.3412 13.0424 11.3412 11.1731C11.3412 8.5957 12.1258 6.5757 13.695 5.11313C15.2643 3.65159 17.1637 2.88698 19.394 2.82031Z"
    fill="#9B9B9B" />
</svg>