<svg width="71" height="80" viewBox="0 0 71 80" fill="none" xmlns="http://www.w3.org/2000/svg">
  <path fill-rule="evenodd" clip-rule="evenodd"
    d="M93.8749 24.5095C91.7934 21.0502 89.2608 17.7864 86.2772 14.8028C66.5401 -4.93428 34.5399 -4.93428 14.8028 14.8028C-4.93428 34.54 -4.93428 66.5401 14.8028 86.2773C34.5399 106.014 66.5401 106.014 86.2772 86.2773C89.2605 83.2941 91.7928 80.0307 93.8742 76.5719C93.7142 76.5748 93.5538 76.5762 93.3932 76.5762H75.015C60.636 76.5762 48.9795 64.9197 48.9795 50.5407C48.9795 36.1617 60.636 24.5052 75.015 24.5052H93.3932C93.5541 24.5052 93.7147 24.5066 93.8749 24.5095Z"
    fill="#FFC007" />
  <path fill-rule="evenodd" clip-rule="evenodd"
    d="M75.0144 33.6946C65.7104 33.6946 58.168 41.237 58.168 50.541C58.168 59.845 65.7104 67.3874 75.0144 67.3874H93.3926C102.697 67.3874 110.239 59.845 110.239 50.541C110.239 41.237 102.697 33.6946 93.3926 33.6946H75.0144ZM93.4306 41.5214C88.4535 41.5214 84.4188 45.5639 84.4188 50.541C84.4188 55.518 88.4535 59.5606 93.4306 59.5606C98.4076 59.5606 102.442 55.518 102.442 50.541C102.442 45.5639 98.4076 41.5214 93.4306 41.5214Z"
    fill="#FFC007" />
</svg>