<svg width="582" height="289" viewBox="0 0 582 289" fill="none" xmlns="http://www.w3.org/2000/svg">
  <path fill-rule="evenodd" clip-rule="evenodd"
    d="M723.017 56.6828C706.992 30.0506 687.495 4.92361 664.525 -18.0461C512.575 -169.996 266.215 -169.996 114.265 -18.0461C-37.6848 133.904 -37.6848 380.264 114.265 532.214C266.215 684.164 512.575 684.164 664.525 532.214C687.492 509.247 706.987 484.123 723.011 457.495C721.78 457.517 720.545 457.528 719.308 457.528H577.82C467.121 457.528 377.381 367.789 377.381 257.089C377.381 146.389 467.121 56.6491 577.82 56.6491H719.308C720.547 56.6491 721.784 56.6604 723.017 56.6828Z"
    fill="#2B2B30" />
  <path fill-rule="evenodd" clip-rule="evenodd"
    d="M577.817 127.394C506.188 127.394 448.121 185.46 448.121 257.089C448.121 328.718 506.188 386.785 577.817 386.785H719.305C790.934 386.785 849 328.718 849 257.089C849 185.46 790.934 127.394 719.305 127.394H577.817ZM719.597 187.65C681.28 187.65 650.218 218.772 650.218 257.089C650.218 295.406 681.28 326.528 719.597 326.528C757.914 326.528 788.976 295.406 788.976 257.089C788.976 218.772 757.914 187.65 719.597 187.65Z"
    fill="#2B2B30" />
</svg>