<svg width="24" height="24" viewBox="0 0 24 24" fill="none" xmlns="http://www.w3.org/2000/svg">
<rect x="-0.000488281" y="-0.000305176" width="24" height="24" rx="5" fill="#32B141"/>
<path d="M17.3901 6.09345H14.2261L13.9782 5.60038C13.9257 5.49497 13.8448 5.4063 13.7447 5.34435C13.6445 5.28239 13.5291 5.24961 13.4113 5.2497H10.3976C10.2801 5.24925 10.1648 5.2819 10.065 5.34393C9.96522 5.40595 9.88491 5.49483 9.8333 5.60038L9.58545 6.09345H6.42139C6.3095 6.09345 6.20219 6.1379 6.12308 6.21701C6.04396 6.29613 5.99951 6.40344 5.99951 6.51532V7.35907C5.99951 7.47096 6.04396 7.57827 6.12308 7.65738C6.20219 7.7365 6.3095 7.78095 6.42139 7.78095H17.3901C17.502 7.78095 17.6093 7.7365 17.6884 7.65738C17.7676 7.57827 17.812 7.47096 17.812 7.35907V6.51532C17.812 6.40344 17.7676 6.29613 17.6884 6.21701C17.6093 6.1379 17.502 6.09345 17.3901 6.09345ZM7.40225 17.5632C7.42237 17.8845 7.56418 18.1861 7.79882 18.4065C8.03346 18.6269 8.34329 18.7497 8.66523 18.7497H15.1463C15.4682 18.7497 15.7781 18.6269 16.0127 18.4065C16.2473 18.1861 16.3892 17.8845 16.4093 17.5632L16.9683 8.6247H6.84326L7.40225 17.5632Z" fill="white"/>
</svg>
