<svg width="36" height="36" viewBox="0 0 36 36" fill="none" xmlns="http://www.w3.org/2000/svg">
  <path fill-rule="evenodd" clip-rule="evenodd"
    d="M1.5 9C1.5 6.51472 3.51472 4.5 6 4.5H30C32.4853 4.5 34.5 6.51472 34.5 9V24C34.5 26.4853 32.4853 28.5 30 28.5H28.5C27.6716 28.5 27 27.8284 27 27C27 26.1716 27.6716 25.5 28.5 25.5H30C30.8284 25.5 31.5 24.8284 31.5 24V9C31.5 8.17157 30.8284 7.5 30 7.5H6C5.17157 7.5 4.5 8.17157 4.5 9V24C4.5 24.8284 5.17157 25.5 6 25.5H7.5C8.32843 25.5 9 26.1716 9 27C9 27.8284 8.32843 28.5 7.5 28.5H6C3.51472 28.5 1.5 26.4853 1.5 24V9Z"
    fill="#A5AAB4" />
  <path
    d="M12.1942 29.1275L16.7794 22.7082C17.3776 21.8707 18.6223 21.8707 19.2206 22.7082L23.8058 29.1275C24.5149 30.1203 23.8052 31.4994 22.5852 31.4994H13.4148C12.1947 31.4994 11.485 30.1203 12.1942 29.1275Z"
    fill="#A5AAB4" />
</svg>