<svg width="137" height="27" viewBox="0 0 137 27" fill="none" xmlns="http://www.w3.org/2000/svg">
  <path
    d="M16.7727 6.46655C9.89216 4.82058 5.08379 8.73199 2.12616 4.33387C2.11731 4.31615 2.10845 4.3073 2.0996 4.28961C2.01991 4.16572 2.12616 3.98873 2.26783 4.02412C8.36022 5.47543 9.35201 4.57279 11.9112 4.88251C14.2755 5.16569 16.7727 6.46655 16.7727 6.46655Z"
    fill="white" />
  <path
    d="M17.986 7.57219C11.929 6.67841 7.6342 11.2004 4.3932 7.72264C4.38434 7.71379 4.37549 7.69609 4.35778 7.68725C4.26923 7.5899 4.33122 7.41292 4.46404 7.42176C9.99855 7.82883 11.3003 6.8554 13.5762 6.75806C15.7013 6.66956 17.986 7.57219 17.986 7.57219Z"
    fill="white" />
  <path
    d="M19.1096 8.99741C13.8229 8.28063 11.5561 13.0239 7.27017 10.1213C7.26132 10.1124 7.25247 10.1036 7.23476 10.0859C7.14621 10.0063 7.17277 9.77618 7.29674 9.77618C11.9811 9.78502 13.2032 8.69654 15.178 8.45762C17.8523 8.13903 19.1096 8.99741 19.1096 8.99741Z"
    fill="white" />
  <path
    d="M21.4924 10.5633C18.7296 10.8553 19.1636 13.0676 16.1351 12.5721C15.7366 12.5101 15.8252 12.2269 16.0023 12.1739C18.5437 11.4482 18.5437 10.9615 19.4558 10.5987C20.3236 10.2712 21.4924 10.5633 21.4924 10.5633Z"
    fill="white" />
  <path
    d="M20.243 9.88165C16.2582 9.9613 15.2399 12.8196 11.8838 11.8905C11.3701 11.7489 11.5473 11.3595 11.8218 11.3241C15.665 10.7135 15.8508 10.1471 17.2765 9.81085C18.6136 9.49228 20.243 9.88165 20.243 9.88165Z"
    fill="white" />
  <path
    d="M17.9678 6.45742C17.9411 6.50166 17.8792 6.5105 17.8349 6.49281C17.0114 6.02379 16.2411 5.47513 15.3556 4.87338C14.5232 4.31587 12.7344 3.55482 9.01521 3.73181C7.24417 3.82031 4.5522 4.18313 1.77166 2.28052C1.09866 1.8292 0.416805 1.05931 0.0625961 0.342522C0.0271777 0.280568 0.00946871 0.20092 0.000614095 0.121272C-0.00824052 0.0416234 0.080305 -0.0203063 0.160021 0.00623509C7.04051 2.76723 9.00636 1.68762 13.3366 2.68759C15.1164 3.10352 17.3213 5.68753 17.959 6.33351C17.9944 6.36008 17.9944 6.41316 17.9678 6.45742Z"
    fill="white" />
  <path
    d="M23.9547 21.59C23.8748 21.8376 23.8925 22.1297 23.7333 22.3421C23.5383 22.6254 23.0603 22.6519 22.83 22.3951C22.6795 22.2626 22.6795 22.0502 22.6262 21.8819C22.281 20.3687 21.9445 18.8553 21.608 17.3332C21.5726 17.2272 21.608 17.1563 21.7142 17.1122C21.8826 17.0678 21.9002 17.2537 21.9532 17.36C22.334 18.3954 22.6882 19.4394 23.0779 20.4748C23.2018 20.8289 23.6182 20.7137 23.8925 20.8024C24.1848 20.988 24.0077 21.3332 23.9547 21.59Z"
    fill="white" />
  <path
    d="M24.406 17.4124C24.4416 17.5098 24.3884 17.6248 24.2822 17.6424C24.2202 17.6513 24.167 17.6424 24.1494 17.5539C23.8924 17.0407 23.6711 16.501 23.4054 15.9877C23.0602 15.6956 22.6971 15.3947 22.4846 14.9788C22.1038 14.3063 22.1392 13.4302 22.5642 12.7842C22.5996 12.7399 22.6262 12.6868 22.6617 12.6426C22.7237 12.5541 22.8565 12.5718 22.8918 12.678C22.9184 12.7576 22.9361 12.8373 22.9716 12.9081C23.4497 14.4036 23.9103 15.9169 24.406 17.4124Z"
    fill="white" />
  <path
    d="M24.4769 10.2884C24.4592 10.6866 24.3088 11.0583 24.2113 11.4388C24.2023 11.4654 24.1936 11.4831 24.167 11.4919C24.1051 11.5185 24.0431 11.4742 24.0431 11.4123C24.0518 10.8902 24.2379 10.3769 24.1051 9.86365C23.9103 9.16456 23.432 8.55396 23.3967 7.81061C23.3788 7.42124 23.4763 7.04072 23.5561 6.6602C23.2726 6.0673 23.1398 5.38588 23.2902 4.73989C23.3168 4.66025 23.3258 4.66025 23.3701 4.72218C23.6447 5.12042 24.0076 5.51863 24.0076 6.04073C23.9722 6.78408 23.5648 7.52743 23.8394 8.27078C24.0608 8.93448 24.5388 9.55393 24.4769 10.2884Z"
    fill="white" />
  <path
    d="M26.8136 7.72256C26.796 8.69598 25.9458 9.47472 26.0433 10.4659C26.0433 10.8464 26.1406 11.2358 26.0963 11.6163C26.0344 11.9525 25.6536 12.0056 25.3792 12.0853C25.2198 12.1561 25.0427 11.9703 25.087 11.811C25.087 10.6605 25.087 9.50128 25.087 8.35087C25.1046 7.87301 25.2198 7.36857 25.5474 7.00577C25.7511 6.76683 25.9635 6.52791 26.1849 6.28896C26.2291 6.23585 26.2557 6.17393 26.247 6.11197C26.2291 5.89959 26.1849 5.71375 26.2824 5.46596C26.4328 5.15624 26.6278 4.9704 26.8313 4.76687C26.8669 4.73148 26.9198 4.74918 26.9288 4.79341C27.0706 5.42173 26.9288 6.10312 26.6365 6.66948C26.7074 7.00577 26.8136 7.35973 26.8136 7.72256Z"
    fill="white" />
  <path
    d="M37.9988 4.16558C36.7944 4.50185 36.2365 4.90891 35.7585 5.28943C35.7585 5.28943 36.8477 4.90891 38.4149 4.74079C42.8603 4.25408 43.117 5.9089 48.0937 3.98859C48.2619 3.96205 48.3061 4.09478 48.2619 4.16558C47.5978 5.316 46.8628 6.5903 44.0823 6.70533C41.0538 6.82924 39.4777 5.61687 36.635 5.9797C34.8198 6.20977 33.8811 6.77613 33.3585 7.12127C39.5573 5.93544 39.0436 8.66105 45.1182 7.20976C45.1891 7.19204 45.269 7.17435 45.3399 7.1832C45.499 7.20089 45.5612 7.3956 45.4637 7.50179C45.4195 7.55487 45.3575 7.60798 45.3132 7.66106C44.5163 8.51945 43.6749 9.45748 40.8412 9.2451C37.5117 8.99731 37.2993 6.93543 30.9412 8.5106C37.1043 8.48406 36.9981 10.5017 41.6383 9.89996C41.7978 9.88227 41.895 10.077 41.7712 10.1831C41.7003 10.2451 41.6204 10.2982 41.5585 10.3513C40.8591 10.8999 39.8406 11.5725 37.9279 11.1831C33.9431 10.3513 34.448 8.70529 29.3207 9.60793C33.3143 9.71412 33.0399 11.2628 37.1399 11.6433C37.1399 11.6433 37.1399 11.6433 37.1486 11.6433C37.37 11.6698 37.4322 11.9618 37.2461 12.0858C37.1043 12.1831 36.9449 12.2539 36.7944 12.3158C33.8015 13.4751 32.4112 9.72297 28.7362 10.5637C31.3663 10.7937 31.1536 11.6787 33.5269 12.3247C33.7836 12.3955 33.7572 12.7406 33.4737 12.7671C30.6579 13.0503 30.9059 11.1566 29.179 11.0858C28.7186 11.0681 28.2935 11.3159 28.0632 11.7229C27.3814 12.9087 27.6558 14.0326 27.6115 14.6432C27.771 15.2804 28.0102 15.8999 28.0189 16.5723C28.0279 17.0414 27.9836 17.5281 27.8329 17.9794C27.5496 18.9173 27.2663 19.8556 26.974 20.8025C26.9121 20.997 26.9208 21.2094 26.9917 21.3953C27.0979 21.6785 27.2044 21.9528 27.2486 22.2537C27.3548 22.758 27.2839 23.2801 27.1069 23.7669C26.735 24.6783 26.3629 25.5898 25.9911 26.5102C25.9202 26.6782 25.8672 26.8554 25.7431 26.9969C25.5573 27.0323 25.575 26.7934 25.5926 26.6782C25.9558 23.2712 26.301 19.8642 26.6552 16.4573L26.9387 15.6432C26.3808 16.121 26.1328 16.7846 25.7697 17.3777C25.7254 17.5192 25.513 17.5457 25.4688 17.3866C25.5041 16.7936 25.5837 16.2008 25.6016 15.6077C25.6546 15.006 25.6458 14.3954 25.8495 13.8202C26.0796 13.2362 26.5224 12.7671 26.8678 12.2627C27.4344 11.5371 27.8595 10.7141 28.1517 9.84685C28.3288 9.31591 28.7009 8.84689 29.179 8.55486C30.835 7.51064 31.8 6.60799 33.3675 5.42219C34.8108 4.3337 35.9266 3.48416 36.5644 3.22755C39.4777 2.03287 45.3309 3.31604 50.343 0.0594847C50.4668 -0.0113164 50.6263 0.130262 50.529 0.333794C50.0597 1.51962 49.5018 2.28067 48.1733 2.93552C44.3479 4.82044 39.9557 3.61692 37.9988 4.16558Z"
    fill="white" />
  <path
    d="M26.3801 6.20953C26.3801 6.20953 26.0523 5.63432 25.2554 5.56352C24.6533 5.51044 24.3789 5.71397 24.3789 5.71397C24.3789 5.71397 25.1049 5.50159 25.6718 6.006C26.2384 6.5104 25.9285 6.94403 25.9285 6.94403C25.9285 6.94403 26.5483 6.5812 26.3801 6.20953Z"
    fill="white" />
  <path
    d="M26.3444 6.13021C26.3444 6.13021 25.9283 5.68776 25.0781 5.65234C25.0781 5.65234 25.5828 5.77623 25.645 6.05056C25.7512 6.57268 25.2908 7.27178 25.2022 7.60806C25.1313 7.90894 26.3444 6.13021 26.3444 6.13021Z"
    fill="white" />
  <path
    d="M101.134 17.8664C99.9819 18.0566 98.815 18.1448 97.6472 18.1301C95.4571 18.1301 93.1084 16.6878 93.1084 12.6606V10.3037C93.1084 6.03363 95.5705 4.81917 97.8026 4.81917C98.9181 4.80921 100.032 4.89146 101.134 5.06505C101.29 5.08306 101.433 5.15203 101.433 5.32895V6.20754C101.433 6.33048 101.364 6.38448 101.206 6.38448H101.137C100.103 6.2975 99.2967 6.26151 97.8055 6.26151C96.177 6.26151 94.7039 7.14012 94.7039 10.3037V12.6606C94.7039 15.5635 96.0188 16.7059 97.6501 16.7059C98.717 16.7059 99.4431 16.6369 99.8553 16.6008V11.5721C99.8517 11.5278 99.857 11.4831 99.8713 11.4409C99.8853 11.3986 99.9081 11.3598 99.9376 11.3266C99.9673 11.2935 100.003 11.2668 100.044 11.2482C100.084 11.2295 100.128 11.2194 100.172 11.2183H101.119C101.209 11.2229 101.294 11.2623 101.356 11.3283C101.418 11.3942 101.452 11.4816 101.451 11.5721V17.4795C101.454 17.5715 101.423 17.6615 101.365 17.7326C101.307 17.8037 101.225 17.8512 101.134 17.8664Z"
    fill="white" fill-opacity="0.7" />
  <path
    d="M107.983 9.56501C107.167 9.53254 106.35 9.59189 105.548 9.74193V17.6554C105.552 17.7412 105.523 17.8253 105.468 17.8904C105.412 17.9557 105.334 17.9972 105.249 18.0061H104.338C104.249 18.0015 104.167 17.962 104.107 17.8964C104.048 17.8306 104.017 17.7441 104.021 17.6554V9.1092C104.026 9.0209 104.058 8.93621 104.111 8.86616C104.165 8.7961 104.239 8.74391 104.323 8.71638C105.321 8.2756 106.531 8.22461 107.983 8.22461C108.213 8.22461 108.354 8.24259 108.354 8.48848V9.29514C108.354 9.47806 108.318 9.56501 107.983 9.56501Z"
    fill="white" fill-opacity="0.7" />
  <path
    d="M113.798 18.1293C111.223 18.1293 109.914 16.4233 109.914 13.8384V12.501C109.914 9.91614 111.229 8.21289 113.798 8.21289C116.368 8.21289 117.683 9.91614 117.683 12.501V13.8384C117.683 16.4233 116.359 18.1293 113.798 18.1293ZM116.165 12.501C116.165 10.7018 115.445 9.56529 113.798 9.56529C112.152 9.56529 111.45 10.6928 111.45 12.501V13.8384C111.45 15.6374 112.152 16.777 113.798 16.777C115.445 16.777 116.165 15.6495 116.165 13.8384V12.501Z"
    fill="white" fill-opacity="0.7" />
  <path
    d="M123.527 18.1295H123.36C122.164 18.1295 119.75 17.4607 119.75 13.9974V8.68679C119.746 8.64204 119.752 8.59701 119.766 8.55456C119.781 8.51209 119.804 8.47313 119.835 8.44013C119.865 8.40715 119.902 8.38085 119.943 8.36291C119.984 8.34498 120.028 8.33579 120.073 8.33594H120.984C121.028 8.33661 121.072 8.3464 121.112 8.3647C121.153 8.383 121.189 8.40942 121.218 8.44232C121.248 8.47523 121.271 8.51392 121.285 8.55596C121.299 8.59803 121.305 8.64255 121.301 8.68679V13.9974C121.301 16.0965 122.197 16.7771 123.369 16.7771H123.527C124.698 16.7771 125.595 16.1084 125.595 13.9974V8.68679C125.591 8.64279 125.596 8.59851 125.61 8.55666C125.625 8.51481 125.647 8.47626 125.676 8.44341C125.706 8.41055 125.741 8.38406 125.781 8.36559C125.821 8.3471 125.865 8.33702 125.909 8.33594H126.82C126.864 8.33661 126.908 8.3464 126.948 8.3647C126.988 8.383 127.025 8.40942 127.054 8.44232C127.084 8.47523 127.107 8.51392 127.121 8.55596C127.135 8.59803 127.14 8.64255 127.137 8.68679V13.9974C127.137 17.4607 124.716 18.1295 123.527 18.1295Z"
    fill="white" fill-opacity="0.7" />
  <path
    d="M133.11 18.1304C132.423 18.1212 131.738 18.0571 131.061 17.9385V21.1201C131.061 21.164 131.052 21.2071 131.035 21.2476C131.019 21.2879 130.994 21.3245 130.964 21.3556C130.933 21.3865 130.896 21.411 130.856 21.4277C130.816 21.4443 130.772 21.453 130.729 21.453H129.833C129.79 21.4525 129.747 21.4436 129.708 21.4267C129.669 21.4096 129.634 21.3848 129.604 21.3537C129.574 21.3228 129.551 21.2859 129.536 21.2459C129.521 21.2059 129.514 21.163 129.516 21.1201V9.01757C129.516 8.78969 129.57 8.68473 129.883 8.61576C130.939 8.35881 132.021 8.22301 133.108 8.21094C135.719 8.21094 136.929 9.91416 136.929 12.553V13.8154C136.932 16.5832 135.668 18.1304 133.11 18.1304ZM135.387 12.556C135.387 10.7088 134.847 9.51534 133.11 9.51534C132.424 9.51935 131.738 9.57749 131.061 9.68927V16.6522C131.738 16.7638 132.424 16.8231 133.11 16.8291C134.829 16.8291 135.387 15.7045 135.387 13.8304V12.556Z"
    fill="white" fill-opacity="0.7" />
  <path
    d="M70.6355 17.9874C69.8466 18.1103 67.6472 18.2663 66.8854 18.2663C63.503 18.2663 61.208 17.4146 61.208 13.1506V5.37813C61.2087 5.3331 61.2184 5.28869 61.2366 5.24747C61.2547 5.20627 61.2806 5.16908 61.3132 5.1381C61.3457 5.1071 61.3841 5.08292 61.426 5.06699C61.4681 5.05105 61.5128 5.04367 61.5576 5.04527H64.4143C64.4591 5.04327 64.5041 5.05035 64.5461 5.06614C64.5882 5.08193 64.627 5.10606 64.6596 5.13714C64.692 5.16821 64.7182 5.20557 64.7361 5.24697C64.754 5.28838 64.7634 5.33298 64.7639 5.37813V13.1506C64.7639 14.7339 65.2898 15.2497 66.5358 15.2497C67.0983 15.2479 67.66 15.2118 68.2182 15.1418V5.37813C68.2184 5.33298 68.2278 5.28838 68.2457 5.24697C68.2636 5.20557 68.2898 5.16821 68.3224 5.13714C68.3551 5.10606 68.3935 5.08193 68.4356 5.06614C68.4777 5.05035 68.5227 5.04327 68.5677 5.04527H71.4063C71.499 5.04117 71.5892 5.07381 71.6581 5.13608C71.7269 5.19837 71.7685 5.28532 71.7738 5.37813V16.6321C71.7738 17.6157 71.475 17.8644 70.6355 17.9874Z"
    fill="white" />
  <path
    d="M77.275 18.1103H74.4004C74.3085 18.1081 74.2212 18.0698 74.1568 18.0035C74.0927 17.9375 74.0566 17.8487 74.0566 17.7567V5.3781C74.0576 5.3336 74.067 5.2897 74.0847 5.24889C74.1024 5.20808 74.128 5.17114 74.1599 5.14024C74.1919 5.10934 74.2294 5.08504 74.2707 5.06874C74.3119 5.05244 74.3561 5.04446 74.4004 5.04526H77.275C77.3198 5.04323 77.3648 5.05032 77.4069 5.06611C77.449 5.0819 77.4877 5.10606 77.5201 5.13713C77.5527 5.16818 77.5789 5.20554 77.5968 5.24696C77.6147 5.28835 77.6241 5.33297 77.6246 5.3781V17.7567C77.6248 17.8029 77.6161 17.8487 77.5987 17.8917C77.5813 17.9346 77.5557 17.9736 77.5232 18.0066C77.4906 18.0394 77.4521 18.0655 77.4093 18.0833C77.3667 18.1011 77.321 18.1103 77.275 18.1103Z"
    fill="white" />
  <path
    d="M87.4375 17.9499C86.6404 18.1779 85.8132 18.2842 84.9844 18.2647C81.7602 18.2647 79.5879 16.5076 79.5879 12.4803V10.6811C79.5879 6.64195 81.7602 4.88474 84.9844 4.88474C85.8132 4.86688 86.6399 4.973 87.4375 5.1996C87.7184 5.28957 87.8232 5.34053 87.8232 5.58644V7.83843C87.8232 8.06631 87.7184 8.17127 87.5244 8.17127H87.4704C86.6561 8.07578 85.8372 8.02373 85.0173 8.01535C84.0701 8.01535 83.2243 8.43516 83.2243 10.6691V12.4683C83.2243 14.6843 84.067 15.1251 85.0173 15.1251C85.8372 15.1159 86.6561 15.0629 87.4704 14.9662H87.5033C87.7126 14.9662 87.8021 15.0712 87.8021 15.2991V17.5629C87.8232 17.791 87.7184 17.8628 87.4375 17.9499Z"
    fill="white" />
</svg>