<svg width="36" height="36" viewBox="0 0 36 36" fill="none" xmlns="http://www.w3.org/2000/svg">
  <path
    d="M19.5 21C19.5 20.1716 18.8284 19.5 18 19.5C17.1716 19.5 16.5 20.1716 16.5 21V28.5C16.5 30.9853 18.5147 33 21 33C23.4853 33 25.5 30.9853 25.5 28.5C25.5 27.6716 24.8284 27 24 27C23.1716 27 22.5 27.6716 22.5 28.5C22.5 29.3284 21.8284 30 21 30C20.1716 30 19.5 29.3284 19.5 28.5V21Z"
    fill="#A5AAB4" />
  <path fill-rule="evenodd" clip-rule="evenodd"
    d="M9.90949 18.6408L11.7058 19.2396C11.9765 19.3298 12.2672 19.3409 12.544 19.2718L16.1813 18.3624C17.3756 18.0638 18.625 18.0638 19.8193 18.3624L23.4566 19.2718C23.7334 19.3409 24.0241 19.3298 24.2948 19.2396L26.0911 18.6408C26.9447 18.3562 27.8362 18.227 28.7242 18.2531C29.0789 18.2635 29.3641 17.9355 29.2565 17.5974C27.62 12.4539 23.4421 9 18.0003 9C12.5585 9 8.38062 12.4539 6.74408 17.5974C6.63648 17.9355 6.92173 18.2635 7.27644 18.2531C8.16441 18.227 9.05585 18.3562 9.90949 18.6408ZM32.7421 19.3094C32.9982 20.8647 31.4561 21.9853 29.9608 21.4868C29.0128 21.1708 27.9878 21.1708 27.0398 21.4868L25.2435 22.0856C24.4315 22.3563 23.5593 22.3897 22.729 22.1822L19.0917 21.2729C18.3751 21.0937 17.6255 21.0937 16.9089 21.2729L13.2716 22.1822C12.4413 22.3897 11.5691 22.3562 10.7571 22.0856L8.9608 21.4868C8.01278 21.1708 6.98783 21.1708 6.0398 21.4868C4.54449 21.9853 3.00238 20.8647 3.25854 19.3094C4.49627 11.7948 10.0893 6 18.0003 6C25.9113 6 31.5043 11.7948 32.7421 19.3094Z"
    fill="#A5AAB4" />
  <path
    d="M16.5 4.5C16.5 3.67157 17.1716 3 18 3C18.8284 3 19.5 3.67157 19.5 4.5V6C19.5 6.82843 18.8284 7.5 18 7.5C17.1716 7.5 16.5 6.82843 16.5 6V4.5Z"
    fill="#A5AAB4" />
</svg>