<svg width="20" height="20" viewBox="0 0 20 20" fill="none" xmlns="http://www.w3.org/2000/svg">
<path fill-rule="evenodd" clip-rule="evenodd" d="M9.16071 2.43604C9.16071 1.97194 9.53693 1.5957 10.001 1.5957C14.6421 1.5957 18.4044 5.35803 18.4044 9.99909C18.4044 14.6401 14.6421 18.4025 10.001 18.4025C5.35998 18.4025 1.59766 14.6401 1.59766 9.99909C1.59766 9.53497 1.97389 9.15875 2.438 9.15875C2.9021 9.15875 3.27833 9.53497 3.27833 9.99909C3.27833 13.712 6.28819 16.7218 10.001 16.7218C13.7139 16.7218 16.7238 13.712 16.7238 9.99909C16.7238 6.28624 13.7139 3.27638 10.001 3.27638C9.53693 3.27638 9.16071 2.90014 9.16071 2.43604Z" fill="#A5AAB4"/>
<path fill-rule="evenodd" clip-rule="evenodd" d="M9.09766 6.38916C9.09766 5.89055 9.50186 5.48633 10.0005 5.48633C12.4936 5.48633 14.5147 7.5074 14.5147 10.0005C14.5147 12.4936 12.4936 14.5147 10.0005 14.5147C9.50186 14.5147 9.09766 14.1105 9.09766 13.6119C9.09766 13.1132 9.50186 12.709 10.0005 12.709C11.4964 12.709 12.709 11.4964 12.709 10.0005C12.709 8.5046 11.4964 7.292 10.0005 7.292C9.50186 7.292 9.09766 6.88778 9.09766 6.38916Z" fill="#A5AAB4"/>
</svg>
