<svg width="24" height="24" viewBox="0 0 24 24" fill="none" xmlns="http://www.w3.org/2000/svg">
<path d="M24 9.38008H0V4.55248C0 4.32397 0.185297 4.13867 0.413812 4.13867H23.5862C23.8147 4.13867 24 4.32397 24 4.55248L24 9.38008Z" fill="#82AFFF"/>
<path d="M23.5861 19.8625H0.413812C0.185297 19.8625 0 19.6772 0 19.4486V14.6211H24V19.4486C24 19.6772 23.8147 19.8625 23.5861 19.8625Z" fill="#73AF00"/>
<path d="M24 9.37891H0V14.62H24V9.37891Z" fill="#F5F5F5"/>
<path d="M24 8.91406H0V9.56759H24V8.91406Z" fill="#FF4B55"/>
<path d="M24 14.4336H0V15.0871H24V14.4336Z" fill="#FF4B55"/>
<path d="M5.31969 8.06553C4.47256 8.06553 3.78589 7.3805 3.78589 6.53642C3.78589 5.68925 4.47252 5.00113 5.31969 5.00113C5.32297 5.00113 5.32615 5.00113 5.32934 5.00117C5.37922 5.00183 5.3967 4.93559 5.35273 4.91202C5.09187 4.77219 4.79417 4.69306 4.47767 4.69536C3.46405 4.70258 2.64069 5.54253 2.65147 6.55615C2.66207 7.55932 3.48219 8.37134 4.49094 8.37134C4.80308 8.37134 5.09661 8.29235 5.35423 8.15445C5.39806 8.13096 5.38034 8.06473 5.33065 8.06543C5.3269 8.06553 5.32329 8.06553 5.31969 8.06553Z" fill="#F5F5F5"/>
<path d="M6.52104 7.64298L6.45255 7.84839L6.23604 7.85003C6.208 7.85021 6.19638 7.88603 6.21893 7.90267L6.39311 8.03129L6.32777 8.23773C6.31933 8.26445 6.34975 8.28657 6.37258 8.27026L6.54874 8.14435L6.72489 8.27026C6.74772 8.28657 6.7781 8.26445 6.76971 8.23773L6.70436 8.03129L6.8785 7.90267C6.90105 7.88603 6.88942 7.85021 6.86139 7.85003L6.64488 7.84839L6.57639 7.64298C6.56754 7.6164 6.52994 7.6164 6.52104 7.64298Z" fill="#F5F5F5"/>
<path d="M8.04643 7.64298L7.97794 7.84839L7.76143 7.85003C7.7334 7.85021 7.72177 7.88603 7.74432 7.90267L7.91846 8.03129L7.85311 8.23773C7.84468 8.26445 7.8751 8.28657 7.89793 8.27026L8.07408 8.14435L8.25024 8.27026C8.27307 8.28657 8.30344 8.26445 8.29505 8.23773L8.22971 8.03129L8.40385 7.90267C8.42639 7.88603 8.41477 7.85021 8.38674 7.85003L8.17022 7.84839L8.10174 7.64298C8.09288 7.6164 8.05524 7.6164 8.04643 7.64298Z" fill="#F5F5F5"/>
<path d="M9.57182 7.64298L9.50333 7.84839L9.28682 7.85003C9.25879 7.85021 9.24716 7.88603 9.26971 7.90267L9.44389 8.03129L9.37855 8.23773C9.37011 8.26445 9.40054 8.28657 9.42336 8.27026L9.59952 8.14435L9.77568 8.27026C9.7985 8.28657 9.82888 8.26445 9.82049 8.23773L9.75514 8.03129L9.92928 7.90267C9.95183 7.88603 9.94021 7.85021 9.91217 7.85003L9.69566 7.84839L9.62718 7.64298C9.61832 7.6164 9.58068 7.6164 9.57182 7.64298Z" fill="#F5F5F5"/>
<path d="M11.0972 7.64298L11.0287 7.84839L10.8122 7.85003C10.7842 7.85021 10.7726 7.88603 10.7951 7.90267L10.9692 8.03129L10.9039 8.23773C10.8955 8.26445 10.9259 8.28657 10.9487 8.27026L11.1249 8.14435L11.301 8.27026C11.3238 8.28657 11.3542 8.26445 11.3458 8.23773L11.2805 8.03129L11.4546 7.90267C11.4772 7.88603 11.4656 7.85021 11.4375 7.85003L11.221 7.84839L11.1525 7.64298C11.1437 7.6164 11.1061 7.6164 11.0972 7.64298Z" fill="#F5F5F5"/>
<path d="M12.6226 7.64298L12.5541 7.84839L12.3376 7.85003C12.3096 7.85021 12.2979 7.88603 12.3205 7.90267L12.4947 8.03129L12.4293 8.23773C12.4209 8.26445 12.4513 8.28657 12.4741 8.27026L12.6503 8.14435L12.8265 8.27026C12.8493 8.28657 12.8797 8.26445 12.8713 8.23773L12.8059 8.03129L12.9801 7.90267C13.0027 7.88603 12.991 7.85021 12.963 7.85003L12.7465 7.84839L12.678 7.64298C12.6691 7.6164 12.6315 7.6164 12.6226 7.64298Z" fill="#F5F5F5"/>
<path d="M8.04643 6.21922L7.97794 6.42463L7.76143 6.42627C7.7334 6.42646 7.72177 6.46227 7.74432 6.47891L7.91846 6.60753L7.85311 6.81397C7.84468 6.84069 7.8751 6.86282 7.89793 6.8465L8.07408 6.7206L8.25024 6.8465C8.27307 6.86282 8.30344 6.84069 8.29505 6.81397L8.22971 6.60753L8.40385 6.47891C8.42639 6.46227 8.41477 6.42646 8.38674 6.42627L8.17022 6.42463L8.10174 6.21922C8.09288 6.19255 8.05524 6.19255 8.04643 6.21922Z" fill="#F5F5F5"/>
<path d="M9.57182 6.21922L9.50333 6.42463L9.28682 6.42627C9.25879 6.42646 9.24716 6.46227 9.26971 6.47891L9.44389 6.60753L9.37855 6.81397C9.37011 6.84069 9.40054 6.86282 9.42336 6.8465L9.59952 6.7206L9.77568 6.8465C9.7985 6.86282 9.82888 6.84069 9.82049 6.81397L9.75514 6.60753L9.92928 6.47891C9.95183 6.46227 9.94021 6.42646 9.91217 6.42627L9.69566 6.42463L9.62718 6.21922C9.61832 6.19255 9.58068 6.19255 9.57182 6.21922Z" fill="#F5F5F5"/>
<path d="M11.097 6.21898L11.0285 6.42438L10.812 6.42602C10.7839 6.42621 10.7723 6.46202 10.7949 6.47867L10.969 6.60729L10.9037 6.81373C10.8952 6.84045 10.9256 6.86257 10.9485 6.84626L11.1246 6.72035L11.3008 6.84626C11.3236 6.86257 11.354 6.84045 11.3456 6.81373L11.2802 6.60729L11.4544 6.47867C11.4769 6.46202 11.4653 6.42621 11.4373 6.42602L11.2208 6.42438L11.1523 6.21898C11.1435 6.19231 11.1058 6.19231 11.097 6.21898Z" fill="#F5F5F5"/>
<path d="M12.6224 6.21898L12.5539 6.42438L12.3374 6.42602C12.3093 6.42621 12.2977 6.46202 12.3202 6.47867L12.4944 6.60729L12.4291 6.81373C12.4207 6.84045 12.4511 6.86257 12.4739 6.84626L12.6501 6.72035L12.8262 6.84626C12.849 6.86257 12.8794 6.84045 12.871 6.81373L12.8057 6.60729L12.9799 6.47867C13.0024 6.46202 12.9908 6.42621 12.9628 6.42602L12.7462 6.42438L12.6778 6.21898C12.6688 6.19231 12.6312 6.19231 12.6224 6.21898Z" fill="#F5F5F5"/>
<path d="M9.57182 7.64298L9.50333 7.84839L9.28682 7.85003C9.25879 7.85021 9.24716 7.88603 9.26971 7.90267L9.44389 8.03129L9.37855 8.23773C9.37011 8.26445 9.40054 8.28657 9.42336 8.27026L9.59952 8.14435L9.77568 8.27026C9.7985 8.28657 9.82888 8.26445 9.82049 8.23773L9.75514 8.03129L9.92928 7.90267C9.95183 7.88603 9.94021 7.85021 9.91217 7.85003L9.69566 7.84839L9.62718 7.64298C9.61832 7.6164 9.58068 7.6164 9.57182 7.64298Z" fill="#F5F5F5"/>
<path d="M9.57182 4.79532L9.50333 5.00073L9.28682 5.00237C9.25879 5.00256 9.24716 5.03837 9.26971 5.05501L9.44389 5.18364L9.37855 5.39007C9.37011 5.41679 9.40054 5.43892 9.42336 5.4226L9.59952 5.2967L9.77568 5.4226C9.7985 5.43892 9.82888 5.41679 9.82049 5.39007L9.75514 5.18364L9.92928 5.05501C9.95183 5.03837 9.94021 5.00256 9.91217 5.00237L9.69566 5.00073L9.62718 4.79532C9.61832 4.76875 9.58068 4.76875 9.57182 4.79532Z" fill="#F5F5F5"/>
<path d="M11.0972 7.64298L11.0287 7.84839L10.8122 7.85003C10.7842 7.85021 10.7726 7.88603 10.7951 7.90267L10.9692 8.03129L10.9039 8.23773C10.8955 8.26445 10.9259 8.28657 10.9487 8.27026L11.1249 8.14435L11.301 8.27026C11.3238 8.28657 11.3542 8.26445 11.3458 8.23773L11.2805 8.03129L11.4546 7.90267C11.4772 7.88603 11.4656 7.85021 11.4375 7.85003L11.221 7.84839L11.1525 7.64298C11.1437 7.6164 11.1061 7.6164 11.0972 7.64298Z" fill="#F5F5F5"/>
<path d="M12.6226 7.64298L12.5541 7.84839L12.3376 7.85003C12.3096 7.85021 12.2979 7.88603 12.3205 7.90267L12.4947 8.03129L12.4293 8.23773C12.4209 8.26445 12.4513 8.28657 12.4741 8.27026L12.6503 8.14435L12.8265 8.27026C12.8493 8.28657 12.8797 8.26445 12.8713 8.23773L12.8059 8.03129L12.9801 7.90267C13.0027 7.88603 12.991 7.85021 12.963 7.85003L12.7465 7.84839L12.678 7.64298C12.6691 7.6164 12.6315 7.6164 12.6226 7.64298Z" fill="#F5F5F5"/>
<path d="M11.097 4.7952L11.0285 5.00061L10.812 5.00225C10.7839 5.00244 10.7723 5.03825 10.7949 5.05489L10.969 5.18351L10.9037 5.38995C10.8952 5.41667 10.9256 5.43879 10.9485 5.42248L11.1246 5.29658L11.3008 5.42248C11.3236 5.43879 11.354 5.41667 11.3456 5.38995L11.2802 5.18351L11.4544 5.05489C11.4769 5.03825 11.4653 5.00244 11.4373 5.00225L11.2208 5.00061L11.1523 4.7952C11.1435 4.76862 11.1058 4.76862 11.097 4.7952Z" fill="#F5F5F5"/>
<path d="M12.6224 4.7952L12.5539 5.00061L12.3374 5.00225C12.3093 5.00244 12.2977 5.03825 12.3202 5.05489L12.4944 5.18351L12.4291 5.38995C12.4207 5.41667 12.4511 5.43879 12.4739 5.42248L12.6501 5.29658L12.8262 5.42248C12.849 5.43879 12.8794 5.41667 12.871 5.38995L12.8057 5.18351L12.9799 5.05489C13.0024 5.03825 12.9908 5.00244 12.9628 5.00225L12.7462 5.00061L12.6778 4.7952C12.6688 4.76862 12.6312 4.76862 12.6224 4.7952Z" fill="#F5F5F5"/>
</svg>
